Newsreader6pt-Bold.ufo
<glyph name="parenright" format="2">
  <advance width="758.656"/>
  <unicode hex="0029"/>
  <outline>
    <contour>
      <point x="353.288" y="622.648" type="curve" smooth="yes"/>
      <point x="353.288" y="308.76"/>
      <point x="276.89599999999996" y="95.96000000000001"/>
      <point x="50.336" y="-116.95199999999998" type="curve"/>
      <point x="169.03199999999998" y="-245.536" type="line"/>
      <point x="550.84" y="54.576"/>
      <point x="673.096" y="311.0"/>
      <point x="673.096" y="622.648" type="curve" smooth="yes"/>
      <point x="673.096" y="934.2959999999999"/>
      <point x="550.84" y="1190.72"/>
      <point x="169.03199999999998" y="1490.832" type="curve"/>
      <point x="50.336" y="1362.248" type="line"/>
      <point x="276.89599999999996" y="1149.336"/>
      <point x="353.288" y="936.5360000000001"/>
    </contour>
  </outline>
</glyph>
<glyph name="asterisk" format="2">
  <advance width="964.528"/>
  <unicode hex="002A"/>
  <outline>
    <contour>
      <point x="695.488" y="746.896" type="line"/>
      <point x="624.264" y="973.936" type="line"/>
      <point x="858.712" y="1008.712" type="line"/>
      <point x="847.176" y="1167.3120000000001" type="line"/>
      <point x="608.0799999999999" y="1168.904" type="line"/>
      <point x="647.768" y="1403.24" type="line"/>
      <point x="493.464" y="1440.96" type="line"/>
      <point x="419.40799999999996" y="1214.5120000000002" type="line"/>
      <point x="207.184" y="1323.9599999999998" type="line"/>
      <point x="124.55999999999999" y="1189.84" type="line"/>
      <point x="316.304" y="1048.32" type="line"/>
      <point x="146.79999999999998" y="881.5600000000001" type="line"/>
      <point x="248.55200000000002" y="760.624" type="line"/>
      <point x="443.47999999999996" y="898.96" type="line"/>
      <point x="549.424" y="686.104" type="line"/>
    </contour>
  </outline>
</glyph>
<glyph name="plus" format="2">
  <advance width="1140.0"/>
  <unicode hex="002B"/>
  <outline>
    <contour>
      <point x="455.184" y="970.7360000000001" type="line"/>
      <point x="455.184" y="69.392" type="line"/>
      <point x="684.816" y="69.392" type="line"/>
      <point x="684.816" y="970.7360000000001" type="line"/>
    </contour>
    <contour>
      <point x="1020.672" y="634.8800000000001" type="line"/>
      <point x="119.328" y="634.8800000000001" type="line"/>
      <point x="119.328" y="405.248" type="line"/>
      <point x="1020.672" y="405.248" type="line"/>
    </contour>
  </outline>
</glyph>
<glyph name="hyphen" format="2">
  <advance width="890.872"/>
  <unicode hex="002D"/>
  <outline>
    <contour>
      <point x="133.504" y="650.4159999999999" type="line"/>
      <point x="133.504" y="393.584" type="line"/>
      <point x="757.3679999999999" y="393.584" type="line"/>
      <point x="757.3679999999999" y="650.4159999999999" type="line"/>
    </contour>
  </outline>
</glyph>
<glyph name="period" format="2">
  <advance width="631.872"/>
  <unicode hex="002E"/>
  <outline>
    <contour>
      <point x="315.936" y="401.568" type="curve" smooth="yes"/>
      <point x="184.0" y="401.568"/>
      <point x="99.968" y="321.0"/>
      <point x="99.968" y="188.6" type="curve" smooth="yes"/>
      <point x="99.968" y="56.2"/>
      <point x="184.0" y="-24.368000000000002"/>
      <point x="315.936" y="-24.368000000000002" type="curve" smooth="yes"/>
      <point x="447.87199999999996" y="-24.368000000000002"/>
      <point x="531.904" y="56.2"/>
      <point x="531.904" y="188.6" type="curve" smooth="yes"/>
      <point x="531.904" y="321.0"/>
      <point x="447.87199999999996" y="401.568"/>
    </contour>
  </outline>
</glyph>
<glyph name="semicolon" format="2">
  <advance width="681.784"/>
  <unicode hex="003B"/>
  <outline>
    <contour>
      <point x="86.632" y="-275.576" type="curve"/>
      <point x="166.256" y="-387.048" type="line"/>
      <point x="481.18399999999997" y="-182.128"/>
      <point x="553.9440000000001" y="-41.832"/>
      <point x="553.9440000000001" y="163.88" type="curve" smooth="yes"/>
      <point x="553.9440000000001" y="309.744"/>
      <point x="480.8" y="386.66400000000004"/>
      <point x="336.92" y="386.66400000000004" type="curve" smooth="yes"/>
      <point x="205.22400000000002" y="386.66400000000004"/>
      <point x="122.712" y="307.984"/>
      <point x="122.712" y="185.88" type="curve" smooth="yes"/>
      <point x="122.712" y="132.864"/>
      <point x="284.59200000000004" y="90.864"/>
      <point x="284.59200000000004" y="-25.168000000000003" type="curve" smooth="yes"/>
      <point x="284.59200000000004" y="-111.888"/>
      <point x="229.92800000000003" y="-173.40800000000002"/>
    </contour>
    <contour>
      <point x="337.976" y="1061.328" type="curve" smooth="yes"/>
      <point x="206.04" y="1061.328"/>
      <point x="122.00800000000001" y="984.0"/>
      <point x="122.00800000000001" y="856.136" type="curve" smooth="yes"/>
      <point x="122.00800000000001" y="727.624"/>
      <point x="206.04" y="650.296"/>
      <point x="337.976" y="650.296" type="curve" smooth="yes"/>
      <point x="469.91200000000003" y="650.296"/>
      <point x="553.944" y="727.624"/>
      <point x="553.944" y="856.136" type="curve" smooth="yes"/>
      <point x="553.944" y="984.0"/>
      <point x="469.91200000000003" y="1061.328"/>
    </contour>
  </outline>
</glyph>
<glyph name="question" format="2">
  <advance width="1412.8"/>
  <unicode hex="003F"/>
  <outline>
    <contour>
      <point x="656.768" y="1440.48" type="curve" smooth="yes"/>
      <point x="195.99200000000002" y="1440.48"/>
      <point x="57.76" y="1330.4080000000001"/>
      <point x="57.76" y="1186.9759999999999" type="curve" smooth="yes"/>
      <point x="57.76" y="1092.648"/>
      <point x="129.496" y="1031.208"/>
      <point x="237.6" y="1031.208" type="curve" smooth="yes"/>
      <point x="309.432" y="1031.208"/>
      <point x="399.296" y="1214.184"/>
      <point x="615.7439999999999" y="1214.184" type="curve" smooth="yes"/>
      <point x="820.064" y="1214.184"/>
      <point x="896.328" y="1127.048"/>
      <point x="896.328" y="1023.984" type="curve" smooth="yes"/>
      <point x="896.328" y="877.888"/>
      <point x="813.288" y="828.624"/>
      <point x="496.248" y="838.288" type="curve"/>
      <point x="546.744" y="492.67199999999997" type="line"/>
      <point x="804.048" y="492.67199999999997" type="line"/>
      <point x="849.7280000000001" y="721.872" type="line"/>
      <point x="759.272" y="631.04" type="line"/>
      <point x="1184.856" y="645.52"/>
      <point x="1326.928" y="781.504"/>
      <point x="1326.928" y="1033.464" type="curve" smooth="yes"/>
      <point x="1326.928" y="1257.224"/>
      <point x="1144.552" y="1440.48"/>
    </contour>
    <contour>
      <point x="667.12" y="367.872" type="curve" smooth="yes"/>
      <point x="526.76" y="367.872"/>
      <point x="445.32" y="298.968"/>
      <point x="445.32" y="174.344" type="curve" smooth="yes"/>
      <point x="445.32" y="46.48"/>
      <point x="526.76" y="-24.368000000000002"/>
      <point x="667.12" y="-24.368000000000002" type="curve" smooth="yes"/>
      <point x="807.4799999999999" y="-24.368000000000002"/>
      <point x="888.92" y="46.48"/>
      <point x="888.92" y="174.344" type="curve" smooth="yes"/>
      <point x="888.92" y="298.968"/>
      <point x="807.4799999999999" y="367.872"/>
    </contour>
  </outline>
</glyph>
<glyph name="at" format="2">
  <advance width="1925.664"/>
  <unicode hex="0040"/>
  <outline>
    <contour>
      <point x="1382.088" y="160.712" type="curve" smooth="yes"/>
      <point x="1682.2479999999998" y="160.712"/>
      <point x="1865.808" y="390.08"/>
      <point x="1865.808" y="772.6719999999999" type="curve" smooth="yes"/>
      <point x="1865.808" y="1201.672"/>
      <point x="1573.624" y="1440.48"/>
      <point x="1094.776" y="1440.48" type="curve" smooth="yes"/>
      <point x="471.22400000000005" y="1440.48"/>
      <point x="89.50399999999999" y="1077.032"/>
      <point x="89.50399999999999" y="495.22400000000005" type="curve" smooth="yes"/>
      <point x="89.50399999999999" y="-26.0"/>
      <point x="393.67199999999997" y="-261.44"/>
      <point x="962.96" y="-261.44" type="curve" smooth="yes"/>
      <point x="1224.424" y="-261.44"/>
      <point x="1439.904" y="-200.976"/>
      <point x="1648.16" y="-80.624" type="curve"/>
      <point x="1595.048" y="21.375999999999998" type="line"/>
      <point x="1399.328" y="-85.328"/>
      <point x="1190.72" y="-140.088"/>
      <point x="1002.92" y="-140.088" type="curve" smooth="yes"/>
      <point x="492.112" y="-140.088"/>
      <point x="237.744" y="60.74400000000001"/>
      <point x="237.744" y="510.704" type="curve" smooth="yes"/>
      <point x="237.744" y="1012.144"/>
      <point x="561.296" y="1326.72"/>
      <point x="1085.776" y="1326.72" type="curve" smooth="yes"/>
      <point x="1503.992" y="1326.72"/>
      <point x="1726.864" y="1135.56"/>
      <point x="1726.864" y="741.56" type="curve" smooth="yes"/>
      <point x="1726.864" y="490.88800000000003"/>
      <point x="1604.248" y="306.52000000000004"/>
      <point x="1450.784" y="306.52000000000004" type="curve" smooth="yes"/>
      <point x="1378.488" y="306.52000000000004"/>
      <point x="1345.136" y="331.224"/>
      <point x="1343.192" y="395.03999999999996" type="curve" smooth="yes"/>
      <point x="1341.896" y="427.28000000000003"/>
      <point x="1346.896" y="464.168"/>
      <point x="1363.136" y="516.184" type="curve" smooth="yes"/>
      <point x="1511.248" y="1016.96" type="line"/>
      <point x="1264.8400000000001" y="1016.96" type="line"/>
      <point x="1160.328" y="854.168" type="line"/>
      <point x="1115.7359999999999" y="734.76" type="line" smooth="yes"/>
      <point x="1041.6799999999998" y="531.424"/>
      <point x="934.968" y="384.584"/>
      <point x="852.424" y="384.584" type="curve" smooth="yes"/>
      <point x="807.64" y="384.584"/>
      <point x="784.416" y="407.864"/>
      <point x="783.12" y="453.944" type="curve" smooth="yes"/>
      <point x="777.288" y="610.504"/>
      <point x="940.808" y="866.064"/>
      <point x="1067.6879999999999" y="866.064" type="curve" smooth="yes"/>
      <point x="1125.432" y="866.064"/>
      <point x="1150.6960000000001" y="840.192"/>
      <point x="1181.568" y="771.376" type="curve"/>
      <point x="1201.4560000000001" y="810.504" type="line"/>
      <point x="1155.16" y="962.072"/>
      <point x="1078.9759999999999" y="1038.552"/>
      <point x="963.0319999999999" y="1038.552" type="curve" smooth="yes"/>
      <point x="695.92" y="1039.2"/>
      <point x="437.70399999999995" y="700.016"/>
      <point x="449.368" y="409.264" type="curve" smooth="yes"/>
      <point x="455.2" y="268.728"/>
      <point x="549.9920000000001" y="173.544"/>
      <point x="697.808" y="173.544" type="curve" smooth="yes"/>
      <point x="850.416" y="173.544"/>
      <point x="939.4559999999999" y="254.544"/>
      <point x="1097.3999999999999" y="537.6320000000001" type="curve"/>
      <point x="1121.5279999999998" y="537.6320000000001" type="line"/>
      <point x="1103.8239999999998" y="487.576" type="line" smooth="yes"/>
      <point x="1090.12" y="444.928"/>
      <point x="1082.1200000000001" y="404.28"/>
      <point x="1083.416" y="367.688" type="curve" smooth="yes"/>
      <point x="1089.248" y="236.74542205265675"/>
      <point x="1197.9778958599352" y="160.712"/>
    </contour>
  </outline>
</glyph>
<glyph name="C" format="2">
  <advance width="1606.7839999999999"/>
  <unicode hex="0043"/>
  <anchor x="865.496" y="1414.0" name="UCtop"/>
  <anchor x="917.336" y="0.0" name="bottom"/>
  <anchor x="1425.264" y="0.0" name="right"/>
  <outline>
    <contour>
      <point x="1025.608" y="204.50400000000002" type="curve" smooth="yes"/>
      <point x="698.8960000000001" y="204.50400000000002"/>
      <point x="527.104" y="362.088"/>
      <point x="532.032" y="735.872" type="curve" smooth="yes"/>
      <point x="536.256" y="1066.376"/>
      <point x="660.968" y="1197.072"/>
      <point x="967.376" y="1197.072" type="curve" smooth="yes"/>
      <point x="1106.28" y="1197.072"/>
      <point x="1210.0720000000001" y="1171.6480000000001"/>
      <point x="1326.776" y="1100.688" type="curve"/>
      <point x="1172.984" y="1278.5919999999999" type="line"/>
      <point x="1295.048" y="912.048" type="line"/>
      <point x="1479.504" y="912.048" type="line"/>
      <point x="1479.504" y="1502.144" type="line"/>
      <point x="1335.288" y="1502.144" type="line"/>
      <point x="1221.48" y="1369.0559999999998" type="line"/>
      <point x="1327.3600000000001" y="1379.832" type="line"/>
      <point x="1199.9219195083379" y="1418.701571065529"/>
      <point x="1073.72" y="1440.48"/>
      <point x="938.7919999999999" y="1440.48" type="curve" smooth="yes"/>
      <point x="375.176" y="1440.48"/>
      <point x="104.31712699127013" y="1140.7250323103397"/>
      <point x="102.208" y="689.632" type="curve" smooth="yes"/>
      <point x="100.096" y="210.68800000000002"/>
      <point x="382.856" y="-26.48"/>
      <point x="951.512" y="-26.48" type="curve" smooth="yes"/>
      <point x="1143.104" y="-26.48"/>
      <point x="1309.496" y="1.743999999999999"/>
      <point x="1452.672" y="55.928" type="curve"/>
      <point x="1501.744" y="504.264" type="line"/>
      <point x="1344.712" y="504.264" type="line"/>
      <point x="1156.52" y="118.86399999999999" type="line"/>
      <point x="1355.84" y="269.616" type="line"/>
      <point x="1252.912" y="227.56"/>
      <point x="1131.76" y="204.50400000000002"/>
    </contour>
  </outline>
</glyph>
<glyph name="E" format="2">
  <advance width="1641.9279999999999"/>
  <unicode hex="0045"/>
  <anchor x="831.112" y="1414.0" name="UCtop"/>
  <anchor x="1377.112" y="0.0" name="right"/>
  <anchor x="824.072" y="0.0" name="bottom"/>
  <outline>
    <contour>
      <point x="1145.68" y="990.0" type="line"/>
      <point x="980.336" y="990.0" type="line"/>
      <point x="963.336" y="835.088" type="line"/>
      <point x="494.904" y="835.088" type="line"/>
      <point x="494.904" y="638.912" type="line"/>
      <point x="963.336" y="638.912" type="line"/>
      <point x="980.336" y="480.0" type="line"/>
      <point x="1145.68" y="480.0" type="line"/>
      <point x="1145.68" y="735.0" type="line"/>
    </contour>
    <contour>
      <point x="1507.3519999999999" y="981.088" type="line"/>
      <point x="1507.352" y="1502.144" type="line"/>
      <point x="1376.264" y="1502.144" type="line"/>
      <point x="1264.2720000000002" y="1414.0" type="line"/>
      <point x="494.904" y="1414.0" type="line"/>
      <point x="494.904" y="1192.5520000000001" type="line"/>
      <point x="1325.824" y="1192.5520000000001" type="line"/>
      <point x="1198.872" y="1332.9279999999999" type="line"/>
      <point x="1325.88" y="981.0880000000001" type="line"/>
    </contour>
    <contour>
      <point x="1173.616" y="84.312" type="line"/>
      <point x="1286.976" y="221.448" type="line"/>
      <point x="494.904" y="221.448" type="line"/>
      <point x="494.904" y="0.0" type="line"/>
      <point x="1236.944" y="0.0" type="line"/>
      <point x="1319.1200000000001" y="-92.088" type="line"/>
      <point x="1470.096" y="-92.088" type="line"/>
      <point x="1563.592" y="498.744" type="line"/>
      <point x="1377.104" y="498.744" type="line"/>
    </contour>
    <contour>
      <point x="99.632" y="0.0" type="line"/>
      <point x="702.848" y="0.0" type="line"/>
      <point x="702.848" y="1414.0" type="line"/>
      <point x="99.632" y="1414.0" type="line"/>
      <point x="99.632" y="1288.56" type="line"/>
      <point x="277.488" y="1240.9679999999998" type="line"/>
      <point x="277.488" y="173.03199999999998" type="line"/>
      <point x="99.632" y="125.44" type="line"/>
    </contour>
  </outline>
</glyph>
<glyph name="F" format="2">
  <advance width="1523.952"/>
  <unicode hex="0046"/>
  <anchor x="776.1360000000001" y="1414.0" name="UCtop"/>
  <anchor x="490.168" y="0.0" name="bottom"/>
  <outline>
    <contour>
      <point x="1142.16" y="921.408" type="line"/>
      <point x="976.8159999999999" y="921.408" type="line"/>
      <point x="959.8159999999999" y="750.016" type="line"/>
      <point x="494.904" y="750.016" type="line"/>
      <point x="494.904" y="553.84" type="line"/>
      <point x="959.8159999999999" y="553.84" type="line"/>
      <point x="976.8159999999999" y="378.448" type="line"/>
      <point x="1142.16" y="378.448" type="line"/>
      <point x="1142.16" y="649.928" type="line"/>
    </contour>
    <contour>
      <point x="1326.824" y="1502.144" type="line"/>
      <point x="1214.8319999999999" y="1414.0" type="line"/>
      <point x="494.904" y="1414.0" type="line"/>
      <point x="494.904" y="1192.5520000000001" type="line"/>
      <point x="1276.384" y="1192.5520000000001" type="line"/>
      <point x="1149.432" y="1332.9279999999999" type="line"/>
      <point x="1276.4399999999998" y="952.496" type="line"/>
      <point x="1457.912" y="952.4960000000001" type="line"/>
      <point x="1457.912" y="1502.144" type="line"/>
    </contour>
    <contour>
      <point x="702.848" y="1414.0" type="line"/>
      <point x="99.632" y="1414.0" type="line"/>
      <point x="99.632" y="1288.56" type="line"/>
      <point x="277.488" y="1240.9679999999998" type="line"/>
      <point x="277.488" y="173.03199999999998" type="line"/>
      <point x="99.632" y="125.44" type="line"/>
      <point x="99.632" y="0.0" type="line"/>
      <point x="880.7040000000001" y="0.0" type="line"/>
      <point x="880.7040000000001" y="125.44" type="line"/>
      <point x="702.848" y="173.03199999999998" type="line"/>
    </contour>
  </outline>
</glyph>
<glyph name="G" format="2">
  <advance width="1749.08"/>
  <unicode hex="0047"/>
  <anchor x="883.568" y="1414.0" name="UCtop"/>
  <anchor x="952.5120000000001" y="0.0" name="bottom"/>
  <outline>
    <contour>
      <point x="1532.256" y="247.4" type="line"/>
      <point x="1532.256" y="503.968" type="line"/>
      <point x="1664.928" y="564.5200000000001" type="line"/>
      <point x="1664.928" y="677.0" type="line"/>
      <point x="935.048" y="677.0" type="line"/>
      <point x="935.048" y="564.5200000000001" type="line"/>
      <point x="1106.896" y="510.448" type="line"/>
      <point x="1106.896" y="25.855999999999998" type="line"/>
      <point x="1321.144" y="280.304" type="line"/>
      <point x="1220.496" y="230.744"/>
      <point x="1129.168" y="213.57600000000002"/>
      <point x="1025.608" y="213.57600000000002" type="curve" smooth="yes"/>
      <point x="697.5999999999999" y="213.57600000000002"/>
      <point x="527.104" y="366.624"/>
      <point x="532.032" y="735.872" type="curve" smooth="yes"/>
      <point x="536.256" y="1066.376"/>
      <point x="667.856" y="1197.072"/>
      <point x="990.336" y="1197.072" type="curve" smooth="yes"/>
      <point x="1129.24" y="1197.072"/>
      <point x="1233.0320000000002" y="1171.648"/>
      <point x="1349.7359999999999" y="1100.6879999999999" type="curve"/>
      <point x="1195.944" y="1278.5919999999999" type="line"/>
      <point x="1318.008" y="919.088" type="line"/>
      <point x="1502.464" y="919.0880000000001" type="line"/>
      <point x="1502.464" y="1502.144" type="line"/>
      <point x="1358.248" y="1502.144" type="line"/>
      <point x="1244.4399999999998" y="1369.056" type="line"/>
      <point x="1350.32" y="1379.832" type="line"/>
      <point x="1222.8239999999998" y="1418.7199999999998"/>
      <point x="1096.6799999999998" y="1440.832"/>
      <point x="961.7520000000001" y="1440.832" type="curve" smooth="yes"/>
      <point x="382.416" y="1440.832"/>
      <point x="104.32000000000001" y="1140.952"/>
      <point x="102.20800000000001" y="689.632" type="curve" smooth="yes"/>
      <point x="100.096" y="210.68800000000002"/>
      <point x="382.856" y="-26.48"/>
      <point x="951.5120000000001" y="-26.48" type="curve" smooth="yes"/>
      <point x="1191.192" y="-26.48"/>
      <point x="1446.696" y="31.352"/>
      <point x="1648.9279999999999" y="123.184" type="curve"/>
      <point x="1648.9279999999999" y="247.4" type="line"/>
    </contour>
  </outline>
</glyph>
<glyph name="K" format="2">
  <advance width="1836.4080000000001"/>
  <unicode hex="004B"/>
  <anchor x="990.8720000000001" y="0.0" name="bottom"/>
  <anchor x="959.752" y="1414.0" name="UCtop"/>
  <outline>
    <contour>
      <point x="1660.368" y="177.176" type="line"/>
      <point x="1121.0480000000002" y="943.248" type="line"/>
      <point x="1014.16" y="704.5200000000001" type="line"/>
      <point x="1558.776" y="1238.376" type="line"/>
      <point x="1725.48" y="1288.56" type="line"/>
      <point x="1725.48" y="1414.0" type="line"/>
      <point x="1093.1519999999998" y="1414.0" type="line"/>
      <point x="1093.1519999999998" y="1288.56" type="line"/>
      <point x="1260.928" y="1250.856" type="line"/>
      <point x="855.544" y="851.12" type="line"/>
      <point x="562.976" y="851.12" type="line"/>
      <point x="562.976" y="605.6959999999999" type="line"/>
      <point x="838.896" y="605.6959999999999" type="line"/>
      <point x="1179.8239999999998" y="112.48" type="line"/>
      <point x="1179.824" y="98.4" type="line"/>
      <point x="1179.824" y="0.0" type="line"/>
      <point x="1815.0720000000001" y="0.0" type="line"/>
      <point x="1815.0720000000001" y="125.44" type="line"/>
    </contour>
    <contour>
      <point x="702.848" y="1240.9679999999998" type="line"/>
      <point x="880.7040000000001" y="1288.56" type="line"/>
      <point x="880.7040000000001" y="1414.0" type="line"/>
      <point x="99.632" y="1414.0" type="line"/>
      <point x="99.632" y="1288.56" type="line"/>
      <point x="277.488" y="1240.9679999999998" type="line"/>
      <point x="277.488" y="173.03199999999998" type="line"/>
      <point x="99.632" y="125.44" type="line"/>
      <point x="99.632" y="0.0" type="line"/>
      <point x="880.704" y="0.0" type="line"/>
      <point x="880.704" y="125.44" type="line"/>
      <point x="702.848" y="173.03199999999998" type="line"/>
    </contour>
  </outline>
</glyph>
<glyph name="N" format="2">
  <advance width="1864.232"/>
  <unicode hex="004E"/>
  <anchor x="964.912" y="1414.0" name="UCtop"/>
  <anchor x="977.872" y="0.0" name="bottom"/>
  <outline>
    <contour>
      <point x="280.672" y="171.736" type="line"/>
      <point x="105.632" y="125.44" type="line"/>
      <point x="105.632" y="0.0" type="line"/>
      <point x="705.9200000000001" y="0.0" type="line"/>
      <point x="705.9200000000001" y="125.44" type="line"/>
      <point x="524.544" y="171.736" type="line"/>
      <point x="524.544" y="1298.0" type="line"/>
      <point x="419.74399999999997" y="1273.376" type="line"/>
      <point x="1115.088" y="0.0" type="line"/>
      <point x="1609.152" y="0.0" type="line"/>
      <point x="1609.152" y="1242.264" type="line"/>
      <point x="1784.192" y="1288.56" type="line"/>
      <point x="1784.192" y="1414.0" type="line"/>
      <point x="1183.904" y="1414.0" type="line"/>
      <point x="1183.904" y="1288.56" type="line"/>
      <point x="1365.28" y="1242.264" type="line"/>
      <point x="1365.28" y="177.232" type="line"/>
      <point x="1422.968" y="298.00800000000004" type="line"/>
      <point x="808.232" y="1414.0" type="line"/>
      <point x="92.672" y="1414.0" type="line"/>
      <point x="92.672" y="1288.56" type="line"/>
      <point x="280.672" y="1229.3039999999999" type="line"/>
    </contour>
  </outline>
</glyph>
<glyph name="O" format="2">
  <advance width="1760.744"/>
  <unicode hex="004F"/>
  <anchor x="880.048" y="1414.0" name="UCtop"/>
  <anchor x="880.048" y="0.0" name="bottom"/>
  <anchor x="1229.8" y="1414.0" name="horn"/>
  <anchor x="1079.4879999999998" y="0.0" name="right"/>
  <outline>
    <contour>
      <point x="902.024" y="1440.48" type="curve" smooth="yes"/>
      <point x="405.776" y="1440.48"/>
      <point x="101.504" y="1164.456"/>
      <point x="101.504" y="705.648" type="curve" smooth="yes"/>
      <point x="101.504" y="249.84"/>
      <point x="376.024" y="-25.832"/>
      <point x="858.7199999999999" y="-25.832" type="curve" smooth="yes"/>
      <point x="1354.9679999999998" y="-25.832"/>
      <point x="1659.24" y="250.192"/>
      <point x="1659.24" y="709.0" type="curve" smooth="yes"/>
      <point x="1659.24" y="1164.808"/>
      <point x="1384.72" y="1440.48"/>
    </contour>
    <contour>
      <point x="882.568" y="229.94400000000002" type="curve" smooth="yes"/>
      <point x="636.5840000000001" y="229.94400000000002"/>
      <point x="531.624" y="399.752"/>
      <point x="531.624" y="761.032" type="curve" smooth="yes"/>
      <point x="531.624" y="1053.096"/>
      <point x="650.024" y="1184.7040000000002"/>
      <point x="878.176" y="1184.7040000000002" type="curve" smooth="yes"/>
      <point x="1124.16" y="1184.7040000000002"/>
      <point x="1229.12" y="1014.896"/>
      <point x="1229.12" y="653.616" type="curve" smooth="yes"/>
      <point x="1229.12" y="361.552"/>
      <point x="1110.72" y="229.94400000000002"/>
    </contour>
  </outline>
</glyph>
<glyph name="S" format="2">
  <advance width="1458.264"/>
  <unicode hex="0053"/>
  <anchor x="700.376" y="1414.0" name="UCtop"/>
  <anchor x="733.336" y="0.0" name="bottom"/>
  <outline>
    <contour>
      <point x="1191.936" y="1358.368" type="line"/>
      <point x="1051.68" y="1419.368"/>
      <point x="929.2560000000001" y="1440.48"/>
      <point x="773.296" y="1440.48" type="curve" smooth="yes"/>
      <point x="360.2" y="1440.48"/>
      <point x="120.544" y="1293.04"/>
      <point x="120.544" y="994.272" type="curve" smooth="yes"/>
      <point x="120.544" y="675.408"/>
      <point x="329.6" y="604.224"/>
      <point x="540.08" y="571.536" type="curve" smooth="yes"/>
      <point x="750.56" y="538.848"/>
      <point x="966.816" y="544.248"/>
      <point x="966.816" y="374.112" type="curve" smooth="yes"/>
      <point x="966.816" y="248.192"/>
      <point x="881.4" y="192.61599999999999"/>
      <point x="603.2" y="192.61599999999999" type="curve" smooth="yes"/>
      <point x="450.368" y="192.61599999999999"/>
      <point x="352.296" y="209.728"/>
      <point x="227.168" y="264.432" type="curve"/>
      <point x="525.648" y="33.928" type="line"/>
      <point x="289.664" y="441.408" type="line"/>
      <point x="126.536" y="441.408" type="line"/>
      <point x="169.04000000000002" y="22.928" type="line"/>
      <point x="319.072" y="-22.016"/>
      <point x="455.86400000000003" y="-26.48"/>
      <point x="637.2479999999999" y="-26.48" type="curve" smooth="yes"/>
      <point x="1108.096" y="-26.48"/>
      <point x="1349.296" y="125.272"/>
      <point x="1349.296" y="453.59999999999997" type="curve" smooth="yes"/>
      <point x="1349.296" y="796.672"/>
      <point x="1097.0" y="859.336"/>
      <point x="884.928" y="892.504" type="curve" smooth="yes"/>
      <point x="672.856" y="925.672"/>
      <point x="498.08" y="934.936"/>
      <point x="498.08" y="1078.592" type="curve" smooth="yes"/>
      <point x="498.08" y="1192.4160000000002"/>
      <point x="597.1039999999999" y="1222.144"/>
      <point x="777.552" y="1222.144" type="curve" smooth="yes"/>
      <point x="915.952" y="1222.144"/>
      <point x="1018.8000000000001" y="1202.144"/>
      <point x="1094.4879999999998" y="1152.2720000000002" type="curve"/>
      <point x="1000.6800000000001" y="1259.8" type="line"/>
      <point x="1109.84" y="998.552" type="line"/>
      <point x="1289.872" y="998.552" type="line"/>
      <point x="1289.8719999999998" y="1502.144" type="line"/>
      <point x="1143.952" y="1502.144" type="line"/>
      <point x="1034.92" y="1357.3919999999998" type="line"/>
    </contour>
  </outline>
</glyph>
<glyph name="U" format="2">
  <advance width="1793.52"/>
  <unicode hex="0055"/>
  <anchor x="973.24" y="1414.0" name="UCtop"/>
  <anchor x="1146.7920000000001" y="0.0" name="right"/>
  <anchor x="943.24" y="0.0" name="bottom"/>
  <anchor x="1555.512" y="1414.0" name="horn"/>
  <outline>
    <contour>
      <point x="1318.584" y="573.28" type="line" smooth="yes"/>
      <point x="1318.584" y="365.10400000000004"/>
      <point x="1217.336" y="273.584"/>
      <point x="993.088" y="273.584" type="curve" smooth="yes"/>
      <point x="769.0400000000001" y="273.584"/>
      <point x="658.016" y="358.312"/>
      <point x="658.016" y="549.8639999999999" type="curve" smooth="yes"/>
      <point x="658.016" y="1242.264" type="line"/>
      <point x="835.8720000000001" y="1288.56" type="line"/>
      <point x="835.8720000000001" y="1414.0" type="line"/>
      <point x="54.800000000000004" y="1414.0" type="line"/>
      <point x="54.800000000000004" y="1288.56" type="line"/>
      <point x="232.656" y="1242.264" type="line"/>
      <point x="232.656" y="525.888" type="line" smooth="yes"/>
      <point x="232.656" y="137.392"/>
      <point x="459.68800000000005" y="-26.48"/>
      <point x="921.472" y="-26.48" type="curve" smooth="yes"/>
      <point x="1340.5520000000001" y="-26.48"/>
      <point x="1562.4560000000001" y="156.816"/>
      <point x="1562.4560000000001" y="556.0640000000001" type="curve" smooth="yes"/>
      <point x="1562.4560000000001" y="1242.264" type="line"/>
      <point x="1740.3120000000001" y="1288.56" type="line"/>
      <point x="1740.3120000000001" y="1414.0" type="line"/>
      <point x="1140.7279999999998" y="1414.0" type="line"/>
      <point x="1140.7279999999998" y="1288.56" type="line"/>
      <point x="1318.584" y="1242.264" type="line"/>
    </contour>
  </outline>
</glyph>
<glyph name="backslash" format="2">
  <advance width="976.5360000000001"/>
  <unicode hex="005C"/>
  <outline>
    <contour>
      <point x="924.256" y="0.0" type="line"/>
      <point x="333.608" y="1414.0" type="line"/>
      <point x="49.928000000000004" y="1414.0" type="line"/>
      <point x="640.928" y="0.0" type="line"/>
    </contour>
  </outline>
</glyph>
<glyph name="bracketright" format="2">
  <advance width="869.8480000000001"/>
  <unicode hex="005D"/>
  <outline>
    <contour>
      <point x="672.824" y="1464.352" type="line"/>
      <point x="61.464" y="1464.352" type="line"/>
      <point x="61.464" y="1279.032" type="line"/>
      <point x="368.08799999999997" y="1279.032" type="line"/>
      <point x="368.08799999999997" y="-33.088" type="line"/>
      <point x="61.464" y="-33.088" type="line"/>
      <point x="61.464" y="-218.408" type="line"/>
      <point x="672.824" y="-218.408" type="line"/>
    </contour>
  </outline>
</glyph>
<glyph name="asciicircum" format="2">
  <advance width="1140.0"/>
  <unicode hex="005E"/>
  <outline>
    <contour>
      <point x="506.84799999999996" y="1267.712" type="line"/>
      <point x="798.6479999999999" y="649.296" type="line"/>
      <point x="1049.4080000000001" y="649.296" type="line"/>
      <point x="684.1120000000001" y="1414.0" type="line"/>
      <point x="456.184" y="1414.0" type="line"/>
      <point x="90.592" y="649.296" type="line"/>
      <point x="341.352" y="649.296" type="line"/>
      <point x="633.448" y="1267.712" type="line"/>
    </contour>
  </outline>
</glyph>
<glyph name="b" format="2">
  <advance width="1417.96"/>
  <unicode hex="0062"/>
  <anchor x="733.936" y="1414.0" name="UCtop"/>
  <anchor x="684.8639999999999" y="0.0" name="bottom"/>
  <outline>
    <contour>
      <point x="515.552" y="266.048" type="line"/>
      <point x="555.576" y="34.967999999999996"/>
      <point x="681.168" y="-27.536"/>
      <point x="847.896" y="-27.536" type="curve" smooth="yes"/>
      <point x="1132.048" y="-27.536"/>
      <point x="1328.864" y="166.07999999999998"/>
      <point x="1328.864" y="558.48" type="curve" smooth="yes"/>
      <point x="1328.864" y="871.312"/>
      <point x="1173.3600000000001" y="1063.44"/>
      <point x="877.248" y="1063.44" type="curve" smooth="yes"/>
      <point x="798.6" y="1063.44"/>
      <point x="731.7919999999999" y="1042.696"/>
      <point x="471.48" y="872.3919999999999" type="curve"/>
      <point x="471.48" y="787.776" type="line"/>
      <point x="547.192" y="810.672"/>
      <point x="633.608" y="823.528"/>
      <point x="702.528" y="823.528" type="curve" smooth="yes"/>
      <point x="877.632" y="823.528"/>
      <point x="953.808" y="739.688"/>
      <point x="953.808" y="528.0" type="curve" smooth="yes"/>
      <point x="953.808" y="285.86400000000003"/>
      <point x="871.28" y="197.76000000000002"/>
      <point x="736.56" y="197.76000000000002" type="curve" smooth="yes"/>
      <point x="605.288" y="197.76000000000002"/>
      <point x="547.816" y="255.952"/>
      <point x="547.816" y="431.64" type="curve" smooth="yes"/>
      <point x="547.816" y="1223.568" type="line"/>
      <point x="571.7040000000001" y="1490.48" type="line"/>
      <point x="477.864" y="1490.48" type="line"/>
      <point x="-26.296" y="1402.336" type="line"/>
      <point x="-26.296" y="1288.992" type="line"/>
      <point x="51.704" y="1244.249652173913"/>
      <point x="143.672" y="1194.0367826086958"/>
      <point x="169.672" y="1179.24" type="curve"/>
      <point x="169.672" y="289.632" type="line"/>
      <point x="109.096" y="0.0" type="line"/>
      <point x="405.448" y="0.0" type="line"/>
      <point x="554.576" y="266.048" type="line"/>
    </contour>
  </outline>
</glyph>
<glyph name="e" format="2">
  <advance width="1233.424"/>
  <unicode hex="0065"/>
  <anchor x="633.896" y="1036.96" name="top"/>
  <anchor x="1123.664" y="0.0" name="right"/>
  <anchor x="646.92" y="0.0" name="bottom"/>
  <outline>
    <contour>
      <point x="640.0079999999999" y="1063.44" type="curve" smooth="yes"/>
      <point x="285.688" y="1063.44"/>
      <point x="86.15199999999999" y="847.2"/>
      <point x="86.15199999999999" y="501.888" type="curve" smooth="yes"/>
      <point x="86.15199999999999" y="156.81599999999997"/>
      <point x="292.92800000000005" y="-26.48"/>
      <point x="652.232" y="-26.48" type="curve" smooth="yes"/>
      <point x="775.8240000000001" y="-26.48"/>
      <point x="926.5120000000001" y="25.336"/>
      <point x="1123.664" y="152.512" type="curve"/>
      <point x="1123.664" y="281.192" type="line"/>
      <point x="1020.0" y="255.208"/>
      <point x="911.592" y="235.648"/>
      <point x="773.112" y="235.648" type="curve" smooth="yes"/>
      <point x="524.144" y="235.648"/>
      <point x="433.784" y="319.896"/>
      <point x="433.784" y="591.232" type="curve" smooth="yes"/>
      <point x="433.784" y="801.944"/>
      <point x="493.776" y="868.36"/>
      <point x="620.752" y="868.36" type="curve" smooth="yes"/>
      <point x="740.944" y="868.36"/>
      <point x="798.544" y="815.816"/>
      <point x="795.12" y="577.32" type="curve"/>
      <point x="869.9680000000001" y="635.256" type="line"/>
      <point x="345.944" y="635.256" type="line"/>
      <point x="348.056" y="483.704" type="line"/>
      <point x="1150.456" y="483.704" type="line"/>
      <point x="1137.088" y="892.6"/>
      <point x="989.28" y="1063.44"/>
    </contour>
  </outline>
</glyph>
<glyph name="h" format="2">
  <advance width="1488.528"/>
  <unicode hex="0068"/>
  <anchor x="776.432" y="1464.0" name="UCtop"/>
  <anchor x="739.784" y="0.0" name="bottom"/>
  <anchor x="424.144" y="1193.9759999999999" name="center"/>
  <outline>
    <contour>
      <point x="829.936" y="110.904" type="line"/>
      <point x="829.936" y="0.0" type="line"/>
      <point x="1438.1760000000002" y="0.0" type="line"/>
      <point x="1438.1760000000002" y="110.904" type="line"/>
      <point x="1299.336" y="146.36800000000002" type="line"/>
      <point x="1299.336" y="744.216" type="line" smooth="yes"/>
      <point x="1299.336" y="949.2"/>
      <point x="1188.2640000000001" y="1063.44"/>
      <point x="952.136" y="1063.44" type="curve" smooth="yes"/>
      <point x="840.3919999999999" y="1063.44"/>
      <point x="816.816" y="1054.3280000000002"/>
      <point x="526.64" y="828.04" type="curve"/>
      <point x="545.232" y="743.68" type="line"/>
      <point x="615.9200000000001" y="761.664"/>
      <point x="693.76" y="772.592"/>
      <point x="759.304" y="772.592" type="curve" smooth="yes"/>
      <point x="881.112" y="772.592"/>
      <point x="921.192" y="730.2"/>
      <point x="921.192" y="639.448" type="curve" smooth="yes"/>
      <point x="921.192" y="137.296" type="line"/>
    </contour>
    <contour>
      <point x="667.056" y="0.0" type="line"/>
      <point x="667.056" y="110.904" type="line"/>
      <point x="575.8" y="137.29600000000002" type="line"/>
      <point x="575.8" y="1223.568" type="line"/>
      <point x="599.688" y="1490.48" type="line"/>
      <point x="505.848" y="1490.48" type="line"/>
      <point x="1.6879999999999988" y="1402.336" type="line"/>
      <point x="1.6879999999999988" y="1288.992" type="line"/>
      <point x="79.688" y="1244.2819457518947"/>
      <point x="171.656" y="1194.143351416035"/>
      <point x="197.65599999999998" y="1179.24" type="curve"/>
      <point x="197.65599999999998" y="146.36800000000002" type="line"/>
      <point x="59.815999999999995" y="110.904" type="line"/>
      <point x="59.815999999999995" y="0.0" type="line"/>
    </contour>
  </outline>
</glyph>
<glyph name="m" format="2">
  <advance width="2175.392"/>
  <unicode hex="006D"/>
  <anchor x="1108.52" y="1036.96" name="top"/>
  <anchor x="1108.52" y="0.0" name="bottom"/>
  <outline>
    <contour>
      <point x="609.336" y="826.112" type="line"/>
      <point x="509.27200000000005" y="1065.2" type="line"/>
      <point x="436.28" y="1065.2" type="line"/>
      <point x="67.688" y="939.1999999999999" type="line"/>
      <point x="67.688" y="857.376" type="line"/>
      <point x="158.68800000000002" y="780.5016393771974"/>
      <point x="209.192" y="739.9850102604578"/>
      <point x="231.192" y="721.4" type="curve"/>
      <point x="231.192" y="146.36800000000002" type="line"/>
      <point x="93.352" y="110.904" type="line"/>
      <point x="93.352" y="0.0" type="line"/>
      <point x="699.944" y="0.0" type="line"/>
      <point x="699.944" y="110.904" type="line"/>
      <point x="609.336" y="137.296" type="line"/>
    </contour>
    <contour>
      <point x="1297.592" y="763.256" type="line" smooth="yes"/>
      <point x="1297.592" y="964.112"/>
      <point x="1191.6539870967742" y="1063.44"/>
      <point x="966.1519999999999" y="1063.44" type="curve" smooth="yes"/>
      <point x="859.8159999999999" y="1063.44"/>
      <point x="836.944" y="1054.68"/>
      <point x="560.176" y="839.096" type="curve"/>
      <point x="577.7679999999999" y="746.736" type="line"/>
      <point x="642.456" y="762.3679999999999"/>
      <point x="712.592" y="772.592"/>
      <point x="772.7280000000001" y="772.592" type="curve" smooth="yes"/>
      <point x="883.7760000000001" y="772.592"/>
      <point x="919.448" y="733.904"/>
      <point x="919.448" y="651.5600000000001" type="curve" smooth="yes"/>
      <point x="919.448" y="137.296" type="line"/>
      <point x="828.84" y="110.904" type="line"/>
      <point x="828.84" y="0.0" type="line"/>
      <point x="1388.2" y="0.0" type="line"/>
      <point x="1388.2" y="110.904" type="line"/>
      <point x="1297.592" y="137.296" type="line"/>
    </contour>
    <contour>
      <point x="1985.848" y="758.0319999999999" type="line" smooth="yes"/>
      <point x="1985.848" y="954.6080000000001"/>
      <point x="1879.128" y="1063.44"/>
      <point x="1653.056" y="1063.44" type="curve" smooth="yes"/>
      <point x="1545.72" y="1063.44"/>
      <point x="1523.496" y="1054.68"/>
      <point x="1245.024" y="837.744" type="curve"/>
      <point x="1262.616" y="746.384" type="line"/>
      <point x="1327.304" y="762.016"/>
      <point x="1399.088" y="772.592"/>
      <point x="1459.2800000000002" y="772.592" type="curve" smooth="yes"/>
      <point x="1570.68" y="772.592"/>
      <point x="1607.704" y="734.2"/>
      <point x="1607.704" y="651.208" type="curve" smooth="yes"/>
      <point x="1607.704" y="137.296" type="line"/>
      <point x="1517.096" y="110.904" type="line"/>
      <point x="1517.096" y="0.0" type="line"/>
      <point x="2124.04" y="0.0" type="line"/>
      <point x="2124.04" y="110.904" type="line"/>
      <point x="1985.848" y="146.36800000000002" type="line"/>
    </contour>
  </outline>
</glyph>
<glyph name="p" format="2">
  <advance width="1457.6640000000002"/>
  <unicode hex="0070"/>
  <anchor x="745.5840000000001" y="1036.96" name="top"/>
  <anchor x="399.448" y="-438.52" name="bottom"/>
  <outline>
    <contour>
      <point x="994.5120000000001" y="518.144" type="curve" smooth="yes"/>
      <point x="994.5120000000001" y="287.32800000000003"/>
      <point x="912.688" y="197.76000000000002"/>
      <point x="777.2639999999999" y="197.76000000000002" type="curve" smooth="yes"/>
      <point x="656.2" y="197.76000000000002"/>
      <point x="588.52" y="252.84"/>
      <point x="588.52" y="420.208" type="curve" smooth="yes"/>
      <point x="588.52" y="867.168" type="line"/>
      <point x="488.456" y="1065.2" type="line"/>
      <point x="415.464" y="1065.2" type="line"/>
      <point x="46.872" y="939.1999999999999" type="line"/>
      <point x="46.872" y="857.376" type="line"/>
      <point x="120.872" y="794.8627836693694"/>
      <point x="184.37599999999998" y="743.3641030350865"/>
      <point x="210.376" y="721.4000000000001" type="curve"/>
      <point x="210.376" y="-292.15200000000004" type="line"/>
      <point x="70.77600000000001" y="-327.616" type="line"/>
      <point x="70.77600000000001" y="-438.52" type="line"/>
      <point x="747.416" y="-438.52" type="line"/>
      <point x="747.416" y="-327.616" type="line"/>
      <point x="588.168" y="-292.856" type="line"/>
      <point x="588.168" y="278.128" type="line"/>
      <point x="572.4639999999999" y="278.128" type="line"/>
      <point x="575.9839999999999" y="106.688"/>
      <point x="694.008" y="-26.48"/>
      <point x="896.672" y="-26.48" type="curve" smooth="yes"/>
      <point x="1154.456" y="-26.48"/>
      <point x="1369.568" y="179.504"/>
      <point x="1369.568" y="558.48" type="curve" smooth="yes"/>
      <point x="1369.568" y="870.608"/>
      <point x="1215.1200000000001" y="1063.44"/>
      <point x="915.1360000000001" y="1063.44" type="curve" smooth="yes"/>
      <point x="832.264" y="1063.44"/>
      <point x="766.5120000000001" y="1042.344"/>
      <point x="518.52" y="875.208" type="curve"/>
      <point x="518.52" y="791.24" type="line"/>
      <point x="592.472" y="811.728"/>
      <point x="676.424" y="823.528"/>
      <point x="743.232" y="823.528" type="curve" smooth="yes"/>
      <point x="914.4639999999999" y="823.528"/>
      <point x="994.5120000000001" y="738.928"/>
    </contour>
  </outline>
</glyph>
<glyph name="q" format="2">
  <advance width="1410.904"/>
  <unicode hex="0071"/>
  <anchor x="724.928" y="1036.96" name="top"/>
  <anchor x="1056.92" y="-438.52" name="bottom"/>
  <outline>
    <contour>
      <point x="461.856" y="523.072" type="curve" smooth="yes"/>
      <point x="461.856" y="761.2959999999999"/>
      <point x="548.216" y="854.1600000000001"/>
      <point x="703.5840000000001" y="854.1600000000001" type="curve" smooth="yes"/>
      <point x="828.36" y="854.1600000000001"/>
      <point x="867.848" y="791.728"/>
      <point x="867.848" y="649.856" type="curve" smooth="yes"/>
      <point x="867.848" y="-292.856" type="line"/>
      <point x="708.5999999999999" y="-327.616" type="line"/>
      <point x="708.5999999999999" y="-438.52" type="line"/>
      <point x="1385.592" y="-438.52" type="line"/>
      <point x="1385.592" y="-327.616" type="line"/>
      <point x="1245.992" y="-292.15200000000004" type="line"/>
      <point x="1245.992" y="814.1999999999999" type="line"/>
      <point x="1299.1200000000001" y="1032.72" type="line"/>
      <point x="1248.528" y="1069.272" type="line"/>
      <point x="961.808" y="935.064" type="line"/>
      <point x="1073.6560000000002" y="924.176" type="line"/>
      <point x="961.088" y="1031.568"/>
      <point x="856.936" y="1063.44"/>
      <point x="700.92" y="1063.44" type="curve" smooth="yes"/>
      <point x="361.904" y="1063.44"/>
      <point x="86.8" y="845.328"/>
      <point x="86.8" y="478.48" type="curve" smooth="yes"/>
      <point x="86.8" y="165.704"/>
      <point x="236.32000000000002" y="-26.48"/>
      <point x="534.544" y="-26.48" type="curve" smooth="yes"/>
      <point x="613.896" y="-26.48"/>
      <point x="666.272" y="-9.96"/>
      <point x="944.184" y="193.432" type="curve"/>
      <point x="944.184" y="252.056" type="line"/>
      <point x="862.84" y="225.936"/>
      <point x="779.24" y="213.432"/>
      <point x="713.136" y="213.432" type="curve" smooth="yes"/>
      <point x="538.384" y="213.432"/>
      <point x="461.856" y="297.568"/>
    </contour>
  </outline>
</glyph>
<glyph name="s" format="2">
  <advance width="1169.2559999999999"/>
  <unicode hex="0073"/>
  <anchor x="575.472" y="1036.96" name="top"/>
  <anchor x="593.008" y="0.0" name="bottom"/>
  <outline>
    <contour>
      <point x="642.9680000000001" y="1063.44" type="curve" smooth="yes"/>
      <point x="288.336" y="1063.44"/>
      <point x="102.376" y="947.184"/>
      <point x="102.376" y="721.488" type="curve" smooth="yes"/>
      <point x="102.376" y="552.664"/>
      <point x="181.48" y="466.968"/>
      <point x="402.20799999999997" y="427.304" type="curve" smooth="yes"/>
      <point x="622.936" y="387.64"/>
      <point x="728.384" y="383.792"/>
      <point x="728.384" y="271.576" type="curve" smooth="yes"/>
      <point x="728.384" y="189.736"/>
      <point x="665.7280000000001" y="149.048"/>
      <point x="485.648" y="149.048" type="curve" smooth="yes"/>
      <point x="403.408" y="149.048"/>
      <point x="295.264" y="157.99200000000002"/>
      <point x="234.576" y="173.56799999999998" type="curve"/>
      <point x="392.56800000000004" y="50.424" type="line"/>
      <point x="231.392" y="324.352" type="line"/>
      <point x="91.98400000000001" y="324.352" type="line"/>
      <point x="139.52" y="12.672" type="line"/>
      <point x="229.648" y="-9.664"/>
      <point x="386.25600000000003" y="-25.072"/>
      <point x="531.488" y="-25.072" type="curve" smooth="yes"/>
      <point x="920.696" y="-25.072"/>
      <point x="1086.64" y="109.664"/>
      <point x="1086.64" y="332.79200000000003" type="curve" smooth="yes"/>
      <point x="1086.64" y="550.28"/>
      <point x="954.312" y="620.808"/>
      <point x="730.3439999999999" y="653.472" type="curve" smooth="yes"/>
      <point x="506.376" y="686.1360000000001"/>
      <point x="442.192" y="707.208"/>
      <point x="442.192" y="795.3119999999999" type="curve" smooth="yes"/>
      <point x="442.192" y="863.872"/>
      <point x="500.568" y="897.912"/>
      <point x="640.704" y="897.912" type="curve" smooth="yes"/>
      <point x="697.208" y="897.912"/>
      <point x="791.024" y="884.8000000000001"/>
      <point x="877.0079999999999" y="859.872" type="curve"/>
      <point x="725.1360000000001" y="989.96" type="line"/>
      <point x="868.296" y="748.44" type="line"/>
      <point x="1015.664" y="748.44" type="line"/>
      <point x="986.96" y="1026.752" type="line"/>
      <point x="877.976" y="1052.976"/>
      <point x="775.368" y="1063.44"/>
    </contour>
  </outline>
</glyph>
<glyph name="v" format="2">
  <advance width="1422.872"/>
  <unicode hex="0076"/>
  <anchor x="757.264" y="1036.96" name="top"/>
  <anchor x="720.64" y="0.0" name="bottom"/>
  <outline>
    <contour>
      <point x="1280.456" y="894.408" type="line"/>
      <point x="1381.48" y="925.224" type="line"/>
      <point x="1381.48" y="1036.96" type="line"/>
      <point x="920.32" y="1036.96" type="line"/>
      <point x="920.32" y="925.224" type="line"/>
      <point x="1031.848" y="891.352" type="line"/>
      <point x="761.952" y="129.592" type="line"/>
      <point x="844.8480000000001" y="129.59199999999998" type="line"/>
      <point x="542.968" y="895.1279999999999" type="line"/>
      <point x="664.088" y="925.224" type="line"/>
      <point x="664.088" y="1036.96" type="line"/>
      <point x="13.52" y="1036.96" type="line"/>
      <point x="13.52" y="927.168" type="line"/>
      <point x="141.304" y="880.0" type="line"/>
      <point x="516.184" y="-7.039999999999999" type="line"/>
      <point x="922.616" y="-7.039999999999999" type="line"/>
    </contour>
  </outline>
</glyph>
<glyph name="z" format="2">
  <advance width="1212.0079999999998"/>
  <unicode hex="007A"/>
  <anchor x="624.392" y="1036.96" name="top"/>
  <anchor x="594.952" y="0.0" name="bottom"/>
  <outline>
    <contour>
      <point x="108.36800000000001" y="0.0" type="line"/>
      <point x="1060.656" y="0.0" type="line"/>
      <point x="1157.912" y="430.392" type="line"/>
      <point x="1031.528" y="430.392" type="line"/>
      <point x="790.2800000000001" y="68.456" type="line"/>
      <point x="952.824" y="204.04" type="line"/>
      <point x="302.568" y="204.04" type="line"/>
      <point x="439.656" y="78.456" type="line"/>
      <point x="1098.176" y="881.1279999999999" type="line"/>
      <point x="1098.176" y="1036.96" type="line"/>
      <point x="285.79200000000003" y="1036.96" type="line"/>
      <point x="221.872" y="1063.44" type="line"/>
      <point x="126.112" y="1063.44" type="line"/>
      <point x="78.616" y="655.232" type="line"/>
      <point x="213.72" y="655.232" type="line"/>
      <point x="384.456" y="1004.3679999999999" type="line"/>
      <point x="167.632" y="834.216" type="line"/>
      <point x="897.536" y="834.2159999999999" type="line"/>
      <point x="748.928" y="954.856" type="line"/>
      <point x="108.36800000000001" y="158.424" type="line"/>
    </contour>
  </outline>
</glyph>
<glyph name="braceleft" format="2">
  <advance width="838.5039999999999"/>
  <unicode hex="007B"/>
  <outline>
    <contour>
      <point x="63.687999999999995" y="539.024" type="line"/>
      <point x="138.336" y="536.728" type="line" smooth="yes"/>
      <point x="238.448" y="533.432"/>
      <point x="276.32" y="498.152"/>
      <point x="276.32" y="415.04" type="curve" smooth="yes"/>
      <point x="276.32" y="300.96000000000004"/>
      <point x="220.024" y="186.184"/>
      <point x="220.024" y="48.056" type="curve" smooth="yes"/>
      <point x="220.024" y="-88.48"/>
      <point x="326.112" y="-216.296"/>
      <point x="560.072" y="-232.648" type="curve" smooth="yes"/>
      <point x="750.744" y="-245.888" type="line"/>
      <point x="767.928" y="-71.384" type="line"/>
      <point x="677.856" y="-59.44" type="line" smooth="yes"/>
      <point x="582.1279999999999" y="-47.03199999999999"/>
      <point x="555.256" y="2.288000000000004"/>
      <point x="555.256" y="90.624" type="curve" smooth="yes"/>
      <point x="555.256" y="188.736"/>
      <point x="569.296" y="288.128"/>
      <point x="569.296" y="372.264" type="curve" smooth="yes"/>
      <point x="569.296" y="521.984"/>
      <point x="483.928" y="611.112"/>
      <point x="265.288" y="655.96" type="curve"/>
      <point x="265.288" y="588.28" type="line"/>
      <point x="483.928" y="632.776"/>
      <point x="569.296" y="721.904"/>
      <point x="569.296" y="872.328" type="curve" smooth="yes"/>
      <point x="569.296" y="956.112"/>
      <point x="555.256" y="1055.856"/>
      <point x="555.256" y="1153.616" type="curve" smooth="yes"/>
      <point x="555.256" y="1242.304"/>
      <point x="582.1279999999999" y="1291.272"/>
      <point x="677.856" y="1303.68" type="curve" smooth="yes"/>
      <point x="767.928" y="1315.624" type="line"/>
      <point x="750.744" y="1490.4799999999998" type="line"/>
      <point x="560.072" y="1477.24" type="line" smooth="yes"/>
      <point x="326.11199999999997" y="1460.888"/>
      <point x="220.024" y="1332.368"/>
      <point x="220.024" y="1195.8319999999999" type="curve" smooth="yes"/>
      <point x="220.024" y="1058.408"/>
      <point x="276.32" y="943.632"/>
      <point x="276.32" y="829.5519999999999" type="curve" smooth="yes"/>
      <point x="276.32" y="746.0880000000001"/>
      <point x="238.448" y="710.808"/>
      <point x="138.336" y="707.5120000000001" type="curve" smooth="yes"/>
      <point x="63.687999999999995" y="704.864" type="line"/>
    </contour>
  </outline>
</glyph>
<glyph name="braceright" format="2">
  <advance width="838.5039999999999"/>
  <unicode hex="007D"/>
  <outline>
    <contour>
      <point x="774.816" y="705.568" type="line"/>
      <point x="700.168" y="707.864" type="line" smooth="yes"/>
      <point x="600.0559999999999" y="711.16"/>
      <point x="562.184" y="746.44"/>
      <point x="562.184" y="829.5519999999999" type="curve" smooth="yes"/>
      <point x="562.184" y="943.632"/>
      <point x="618.48" y="1058.408"/>
      <point x="618.48" y="1196.536" type="curve" smooth="yes"/>
      <point x="618.48" y="1333.072"/>
      <point x="512.3919999999999" y="1460.888"/>
      <point x="278.432" y="1477.24" type="curve" smooth="yes"/>
      <point x="87.76" y="1490.4799999999998" type="line"/>
      <point x="70.576" y="1315.976" type="line"/>
      <point x="160.648" y="1304.032" type="line" smooth="yes"/>
      <point x="256.37600000000003" y="1291.624"/>
      <point x="283.248" y="1242.304"/>
      <point x="283.248" y="1153.968" type="curve" smooth="yes"/>
      <point x="283.248" y="1055.856"/>
      <point x="269.20799999999997" y="956.464"/>
      <point x="269.20799999999997" y="872.328" type="curve" smooth="yes"/>
      <point x="269.20799999999997" y="722.608"/>
      <point x="354.576" y="633.4799999999999"/>
      <point x="573.216" y="588.632" type="curve"/>
      <point x="573.216" y="656.312" type="line"/>
      <point x="354.576" y="611.8159999999999"/>
      <point x="269.20799999999997" y="522.6880000000001"/>
      <point x="269.20799999999997" y="372.264" type="curve" smooth="yes"/>
      <point x="269.20799999999997" y="288.48"/>
      <point x="283.248" y="188.736"/>
      <point x="283.248" y="90.976" type="curve" smooth="yes"/>
      <point x="283.248" y="2.288000000000004"/>
      <point x="256.37600000000003" y="-46.67999999999999"/>
      <point x="160.648" y="-59.088" type="curve" smooth="yes"/>
      <point x="70.576" y="-71.03200000000001" type="line"/>
      <point x="87.76" y="-245.888" type="line"/>
      <point x="278.432" y="-232.648" type="line" smooth="yes"/>
      <point x="512.3919999999999" y="-216.296"/>
      <point x="618.48" y="-87.776"/>
      <point x="618.48" y="48.76" type="curve" smooth="yes"/>
      <point x="618.48" y="186.184"/>
      <point x="562.184" y="300.96000000000004"/>
      <point x="562.184" y="415.04" type="curve" smooth="yes"/>
      <point x="562.184" y="498.50399999999996"/>
      <point x="600.0559999999999" y="533.784"/>
      <point x="700.168" y="537.08" type="curve" smooth="yes"/>
      <point x="774.816" y="539.728" type="line"/>
    </contour>
  </outline>
</glyph>
<glyph name="asciitilde" format="2">
  <advance width="1140.0"/>
  <unicode hex="007E"/>
  <outline>
    <contour>
      <point x="119.976" y="342.672" type="curve"/>
      <point x="347.664" y="342.672" type="line"/>
      <point x="351.424" y="436.6"/>
      <point x="376.296" y="476.472"/>
      <point x="438.152" y="476.472" type="curve" smooth="yes"/>
      <point x="524.8800000000001" y="476.472"/>
      <point x="583.12" y="330.376"/>
      <point x="769.0079999999999" y="330.376" type="curve" smooth="yes"/>
      <point x="935.688" y="330.376"/>
      <point x="1022.9119999999999" y="443.296"/>
      <point x="1022.0239999999999" y="696.8080000000001" type="curve"/>
      <point x="794.336" y="696.8080000000001" type="line"/>
      <point x="790.576" y="601.88"/>
      <point x="765.704" y="563.008"/>
      <point x="703.848" y="563.008" type="curve" smooth="yes"/>
      <point x="617.12" y="563.008"/>
      <point x="558.88" y="708.7520000000001"/>
      <point x="372.99199999999996" y="708.7520000000001" type="curve" smooth="yes"/>
      <point x="206.31199999999998" y="708.7520000000001"/>
      <point x="119.088" y="596.184"/>
    </contour>
  </outline>
</glyph>
<glyph name="brokenbar" format="2">
  <advance width="646.768"/>
  <unicode hex="00A6"/>
  <outline>
    <contour>
      <point x="448.744" y="742.6" type="line"/>
      <point x="448.744" y="1535.0" type="line"/>
      <point x="198.02399999999997" y="1535.0" type="line"/>
      <point x="198.02399999999997" y="742.6" type="line"/>
    </contour>
    <contour>
      <point x="198.02399999999997" y="-465.0" type="line"/>
      <point x="448.744" y="-465.0" type="line"/>
      <point x="448.744" y="327.4" type="line"/>
      <point x="198.02399999999997" y="327.4" type="line"/>
    </contour>
  </outline>
</glyph>
<glyph name="copyright" format="2">
  <advance width="1724.704"/>
  <unicode hex="00A9"/>
  <outline>
    <contour>
      <point x="862.352" y="1440.48" type="curve" smooth="yes"/>
      <point x="391.096" y="1440.48"/>
      <point x="121.224" y="1176.776"/>
      <point x="121.224" y="707.0" type="curve" smooth="yes"/>
      <point x="121.224" y="237.224"/>
      <point x="391.096" y="-26.48"/>
      <point x="862.352" y="-26.48" type="curve" smooth="yes"/>
      <point x="1333.6080000000002" y="-26.48"/>
      <point x="1603.832" y="237.224"/>
      <point x="1603.832" y="707.0" type="curve" smooth="yes"/>
      <point x="1603.832" y="1176.776"/>
      <point x="1333.6080000000002" y="1440.48"/>
    </contour>
    <contour>
      <point x="862.352" y="1324.184" type="curve" smooth="yes"/>
      <point x="1251.24" y="1324.184"/>
      <point x="1471.7040000000002" y="1105.648"/>
      <point x="1471.7040000000002" y="707.0" type="curve" smooth="yes"/>
      <point x="1471.7040000000002" y="308.352"/>
      <point x="1251.24" y="89.816"/>
      <point x="862.352" y="89.816" type="curve" smooth="yes"/>
      <point x="473.81600000000003" y="89.816"/>
      <point x="253.352" y="308.352"/>
      <point x="253.352" y="707.0" type="curve" smooth="yes"/>
      <point x="253.352" y="1105.648"/>
      <point x="473.81600000000003" y="1324.184"/>
    </contour>
    <contour>
      <point x="969.8080000000001" y="444.528" type="curve"/>
      <point x="792.544" y="444.528"/>
      <point x="704.112" y="519.272"/>
      <point x="704.112" y="709.832" type="curve" smooth="yes"/>
      <point x="704.112" y="903.3199999999999"/>
      <point x="779.36" y="970.5840000000001"/>
      <point x="932.496" y="970.5840000000001" type="curve" smooth="yes"/>
      <point x="1016.424" y="970.5840000000001"/>
      <point x="1077.128" y="955.232"/>
      <point x="1143.24" y="916.528" type="curve"/>
      <point x="1052.7839999999999" y="1027.376" type="line"/>
      <point x="1122.76" y="813.5440000000001" type="line"/>
      <point x="1223.9759999999999" y="813.544" type="line"/>
      <point x="1223.9759999999999" y="1140.0" type="line"/>
      <point x="1144.536" y="1140.0" type="line"/>
      <point x="1080.152" y="1063.4080000000001" type="line"/>
      <point x="1148.52" y="1086.8319999999999" type="line"/>
      <point x="1072.336" y="1110.592"/>
      <point x="993.224" y="1123.0"/>
      <point x="911.24" y="1123.0" type="curve" smooth="yes"/>
      <point x="588.896" y="1123.0"/>
      <point x="433.968" y="948.7439999999999"/>
      <point x="433.968" y="693.632" type="curve" smooth="yes"/>
      <point x="433.968" y="426.352"/>
      <point x="587.728" y="301.0"/>
      <point x="913.296" y="301.0" type="curve" smooth="yes"/>
      <point x="1019.016" y="301.0"/>
      <point x="1108.3120000000001" y="315.05600000000004"/>
      <point x="1196.9759999999999" y="344.648" type="curve"/>
      <point x="1228.68" y="592.1600000000001" type="line"/>
      <point x="1135.056" y="592.1600000000001" type="line"/>
      <point x="1040.152" y="376.032" type="line"/>
      <point x="1141.608" y="478.288" type="line"/>
      <point x="1086.904" y="455.52799999999996"/>
      <point x="1021.568" y="444.528"/>
    </contour>
  </outline>
</glyph>
<glyph name="ordfeminine" format="2">
  <advance width="1078.1119999999999"/>
  <unicode hex="00AA"/>
  <outline>
    <contour>
      <point x="143.744" y="446.496" type="line"/>
      <point x="953.9760000000001" y="446.496" type="line"/>
      <point x="953.9760000000001" y="624.3199999999999" type="line"/>
      <point x="143.744" y="624.3199999999999" type="line"/>
    </contour>
    <contour>
      <point x="605.448" y="1073.56" type="curve"/>
      <point x="605.448" y="1177.5600000000002" type="line"/>
      <point x="227.464" y="1126.1119999999999"/>
      <point x="138.32" y="1069.408"/>
      <point x="138.32" y="929.392" type="curve" smooth="yes"/>
      <point x="138.32" y="805.264"/>
      <point x="215.208" y="742.728"/>
      <point x="369.392" y="742.728" type="curve" smooth="yes"/>
      <point x="505.87199999999996" y="742.728"/>
      <point x="566.672" y="797.024"/>
      <point x="604.448" y="951.9839999999999" type="curve"/>
      <point x="592.688" y="945.5039999999999" type="line"/>
      <point x="598.816" y="801.856"/>
      <point x="654.144" y="744.4879999999999"/>
      <point x="768.1199999999999" y="744.4879999999999" type="curve" smooth="yes"/>
      <point x="830.136" y="744.4879999999999"/>
      <point x="891.688" y="760.024"/>
      <point x="956.944" y="791.0959999999999" type="curve"/>
      <point x="956.944" y="879.6320000000001" type="line"/>
      <point x="929.9440000000001" y="873.8720000000001"/>
      <point x="918.5360000000001" y="872.52"/>
      <point x="906.72" y="872.52" type="curve" smooth="yes"/>
      <point x="867.6080000000001" y="872.52"/>
      <point x="853.9599999999999" y="885.8720000000001"/>
      <point x="853.9599999999999" y="931.136" type="curve" smooth="yes"/>
      <point x="853.9599999999999" y="1200.576" type="line" smooth="yes"/>
      <point x="853.9599999999999" y="1367.0"/>
      <point x="769.744" y="1440.832"/>
      <point x="562.656" y="1440.832" type="curve" smooth="yes"/>
      <point x="352.312" y="1440.832"/>
      <point x="151.208" y="1347.424"/>
      <point x="151.208" y="1258.464" type="curve" smooth="yes"/>
      <point x="151.208" y="1222.6879999999999"/>
      <point x="182.336" y="1203.096"/>
      <point x="243.352" y="1203.096" type="curve" smooth="yes"/>
      <point x="315.73600000000005" y="1203.096"/>
      <point x="336.68" y="1218.688"/>
      <point x="357.568" y="1250.52" type="curve" smooth="yes"/>
      <point x="375.86400000000003" y="1278.4640000000002"/>
      <point x="386.216" y="1316.464"/>
      <point x="399.216" y="1381.1280000000002" type="curve"/>
      <point x="349.304" y="1302.984" type="line"/>
      <point x="386.86400000000003" y="1310.912"/>
      <point x="418.44" y="1314.024"/>
      <point x="461.96" y="1314.024" type="curve" smooth="yes"/>
      <point x="552.28" y="1314.024"/>
      <point x="583.152" y="1276.856"/>
      <point x="583.152" y="1198.464" type="curve" smooth="yes"/>
      <point x="583.152" y="980.448" type="line" smooth="yes"/>
      <point x="583.152" y="933.424"/>
      <point x="555.608" y="902.864"/>
      <point x="488.12" y="902.864" type="curve" smooth="yes"/>
      <point x="421.392" y="902.864"/>
      <point x="399.76" y="921.736"/>
      <point x="399.76" y="973.2" type="curve" smooth="yes"/>
      <point x="399.76" y="1032.48"/>
      <point x="436.39200000000005" y="1054.704"/>
    </contour>
  </outline>
</glyph>
<glyph name="logicalnot" format="2">
  <advance width="1140.0"/>
  <unicode hex="00AC"/>
  <outline>
    <contour>
      <point x="97.848" y="826.936" type="line"/>
      <point x="97.848" y="597.304" type="line"/>
      <point x="1023.56" y="597.304" type="line"/>
      <point x="1023.56" y="826.936" type="line"/>
    </contour>
    <contour>
      <point x="1023.56" y="744.4960000000001" type="line"/>
      <point x="793.928" y="744.4960000000001" type="line"/>
      <point x="793.928" y="210.376" type="line"/>
      <point x="1023.56" y="210.376" type="line"/>
    </contour>
  </outline>
</glyph>
<glyph name="registered" format="2">
  <advance width="1263.44"/>
  <unicode hex="00AE"/>
  <outline>
    <contour>
      <point x="629.544" y="1440.48" type="curve" smooth="yes"/>
      <point x="305.2725190839694" y="1440.48"/>
      <point x="124.408" y="1272.8719999999998"/>
      <point x="124.408" y="972.656" type="curve" smooth="yes"/>
      <point x="124.408" y="672.4399999999999"/>
      <point x="305.2725190839694" y="504.832"/>
      <point x="629.544" y="504.832" type="curve" smooth="yes"/>
      <point x="957.1727272727273" y="504.832"/>
      <point x="1139.0320000000002" y="672.4399999999999"/>
      <point x="1139.0320000000002" y="972.656" type="curve" smooth="yes"/>
      <point x="1139.0320000000002" y="1272.8719999999998"/>
      <point x="957.1727272727273" y="1440.48"/>
    </contour>
    <contour>
      <point x="629.544" y="1340.9279999999999" type="curve" smooth="yes"/>
      <point x="904.1679999999999" y="1340.9279999999999"/>
      <point x="1019.76" y="1210.126068965517"/>
      <point x="1019.76" y="972.656" type="curve" smooth="yes"/>
      <point x="1019.76" y="735.1892103746397"/>
      <point x="904.1679999999999" y="604.736"/>
      <point x="629.544" y="604.736" type="curve" smooth="yes"/>
      <point x="355.624" y="604.736"/>
      <point x="244.032" y="735.1892103746397"/>
      <point x="244.032" y="972.656" type="curve" smooth="yes"/>
      <point x="244.032" y="1210.126068965517"/>
      <point x="355.624" y="1340.9279999999999"/>
    </contour>
    <contour>
      <point x="512.768" y="1014.136" type="line"/>
      <point x="514.88" y="947.472" type="line"/>
      <point x="628.88" y="947.472" type="line" smooth="yes"/>
      <point x="675.12" y="947.472"/>
      <point x="684.176" y="940.8240000000001"/>
      <point x="691.824" y="898.232" type="curve" smooth="yes"/>
      <point x="702.1759999999999" y="826.288" type="line" smooth="yes"/>
      <point x="711.1759999999999" y="762.7520000000001"/>
      <point x="750.952" y="749.4"/>
      <point x="905.4639999999999" y="762.9920000000001" type="curve"/>
      <point x="905.4639999999999" y="820.064" type="line"/>
      <point x="868.76" y="820.064"/>
      <point x="860.76" y="825.064"/>
      <point x="856.76" y="861.6560000000001" type="curve" smooth="yes"/>
      <point x="851.704" y="903.1759999999999" type="line" smooth="yes"/>
      <point x="845.7040000000001" y="955.36"/>
      <point x="819.8720000000001" y="976.36"/>
      <point x="748.4480000000001" y="980.36" type="curve"/>
      <point x="747.392" y="979.0079999999999" type="line"/>
      <point x="834.52" y="984.064"/>
      <point x="875.648" y="1025.304"/>
      <point x="875.648" y="1097.7279999999998" type="curve" smooth="yes"/>
      <point x="875.648" y="1177.856"/>
      <point x="826.112" y="1214.152"/>
      <point x="716.76" y="1214.152" type="curve" smooth="yes"/>
      <point x="511.008" y="1214.152" type="line"/>
      <point x="512.7679999999999" y="1125.36" type="line"/>
      <point x="671.392" y="1125.36" type="line" smooth="yes"/>
      <point x="712.2479999999999" y="1125.36"/>
      <point x="725.656" y="1109.008"/>
      <point x="725.656" y="1069.304" type="curve" smooth="yes"/>
      <point x="725.656" y="1031.192"/>
      <point x="707.5440000000001" y="1014.136"/>
      <point x="668.616" y="1014.136" type="curve" smooth="yes"/>
    </contour>
    <contour>
      <point x="440.68" y="1158.376" type="line"/>
      <point x="440.68" y="819.4159999999999" type="line"/>
      <point x="384.68" y="804.528" type="line"/>
      <point x="384.68" y="762.992" type="line"/>
      <point x="637.8399999999999" y="762.992" type="line"/>
      <point x="637.8399999999999" y="804.528" type="line"/>
      <point x="596.264" y="819.4159999999999" type="line"/>
      <point x="596.264" y="1214.152" type="line"/>
      <point x="384.68" y="1214.152" type="line"/>
      <point x="384.68" y="1171.616" type="line"/>
    </contour>
  </outline>
</glyph>
<glyph name="plusminus" format="2">
  <advance width="1140.0"/>
  <unicode hex="00B1"/>
  <outline>
    <contour>
      <point x="455.36" y="1040.128" type="line"/>
      <point x="455.36" y="138.784" type="line"/>
      <point x="684.9920000000001" y="138.784" type="line"/>
      <point x="684.9920000000001" y="1040.128" type="line"/>
    </contour>
    <contour>
      <point x="119.504" y="704.272" type="line"/>
      <point x="119.504" y="474.64" type="line"/>
      <point x="1020.8480000000001" y="474.64" type="line"/>
      <point x="1020.8480000000001" y="704.272" type="line"/>
    </contour>
    <contour>
      <point x="119.504" y="229.632" type="line"/>
      <point x="119.504" y="0.0" type="line"/>
      <point x="1020.8480000000001" y="0.0" type="line"/>
      <point x="1020.8480000000001" y="229.632" type="line"/>
    </contour>
  </outline>
</glyph>
<glyph name="uni00B3" format="2">
  <advance width="818.064"/>
  <unicode hex="00B3"/>
  <outline>
    <contour>
      <point x="318.368" y="645.52" type="curve" smooth="yes"/>
      <point x="629.616" y="645.52"/>
      <point x="748.56" y="745.52"/>
      <point x="748.56" y="916.24" type="curve" smooth="yes"/>
      <point x="748.56" y="1054.0159999999998"/>
      <point x="629.472" y="1116.0720000000001"/>
      <point x="446.808" y="1101.48" type="curve"/>
      <point x="463.176" y="1094.48" type="line"/>
      <point x="635.984" y="1115.0159999999998"/>
      <point x="700.152" y="1182.368"/>
      <point x="700.152" y="1269.536" type="curve" smooth="yes"/>
      <point x="700.152" y="1376.72"/>
      <point x="616.672" y="1434.48"/>
      <point x="428.752" y="1434.48" type="curve" smooth="yes"/>
      <point x="225.352" y="1434.48"/>
      <point x="129.28" y="1358.6480000000001"/>
      <point x="68.856" y="1202.04" type="curve"/>
      <point x="169.0" y="1150.432" type="line"/>
      <point x="204.704" y="1224.712"/>
      <point x="257.0" y="1266.712"/>
      <point x="334.632" y="1266.712" type="curve" smooth="yes"/>
      <point x="407.096" y="1266.712"/>
      <point x="439.56" y="1235.8400000000001"/>
      <point x="439.56" y="1186.968" type="curve" smooth="yes"/>
      <point x="439.56" y="1122.392"/>
      <point x="407.856" y="1093.816"/>
      <point x="258.04" y="1073.816" type="curve"/>
      <point x="269.33599999999996" y="968.264" type="line"/>
      <point x="310.39200000000005" y="971.616" type="line" smooth="yes"/>
      <point x="450.024" y="983.024"/>
      <point x="487.968" y="952.744"/>
      <point x="487.968" y="882.576" type="curve" smooth="yes"/>
      <point x="487.968" y="794.592"/>
      <point x="430.03999999999996" y="767.9599999999999"/>
      <point x="338.36800000000005" y="767.9599999999999" type="curve" smooth="yes"/>
      <point x="226.832" y="767.9599999999999"/>
      <point x="171.872" y="851.256"/>
      <point x="156.28" y="851.256" type="curve" smooth="yes"/>
      <point x="97.96799999999999" y="851.256"/>
      <point x="65.616" y="813.7760000000001"/>
      <point x="65.616" y="761.296" type="curve" smooth="yes"/>
      <point x="65.616" y="700.888"/>
      <point x="125.44800000000001" y="645.52"/>
    </contour>
  </outline>
</glyph>
<glyph name="uni00B5" format="2">
  <advance width="1492.9520000000002"/>
  <unicode hex="00B5"/>
  <outline>
    <contour>
      <point x="196.672" y="1036.96" type="line"/>
      <point x="196.672" y="-460.24" type="line"/>
      <point x="250.57600000000002" y="-460.24" type="line"/>
      <point x="538.7040000000001" y="-434.464" type="line"/>
      <point x="413.856" y="154.136" type="line"/>
      <point x="395.632" y="140.76" type="line"/>
      <point x="420.36" y="34.504"/>
      <point x="481.192" y="-13.52"/>
      <point x="585.344" y="-13.52" type="curve" smooth="yes"/>
      <point x="672.384" y="-13.52"/>
      <point x="720.88" y="6.256000000000004"/>
      <point x="934.848" y="198.568" type="curve"/>
      <point x="917.256" y="291.22400000000005" type="line"/>
      <point x="848.032" y="274.296"/>
      <point x="776.8960000000001" y="264.368"/>
      <point x="722.592" y="264.368" type="curve" smooth="yes"/>
      <point x="614.0799999999999" y="264.368"/>
      <point x="574.8159999999999" y="298.87199999999996"/>
      <point x="574.8159999999999" y="385.752" type="curve" smooth="yes"/>
      <point x="574.8159999999999" y="1036.96" type="line"/>
    </contour>
    <contour>
      <point x="1261.776" y="258.76" type="curve" smooth="yes"/>
      <point x="1261.776" y="1036.96" type="line"/>
      <point x="883.632" y="1036.96" type="line"/>
      <point x="883.632" y="290.176" type="line" smooth="yes"/>
      <point x="883.632" y="85.776"/>
      <point x="978.536" y="-24.72"/>
      <point x="1147.248" y="-24.72" type="curve" smooth="yes"/>
      <point x="1250.888" y="-24.72"/>
      <point x="1349.976" y="9.464"/>
      <point x="1431.472" y="61.040000000000006" type="curve"/>
      <point x="1431.472" y="182.144" type="line"/>
      <point x="1397.3600000000001" y="176.08800000000002"/>
      <point x="1371.432" y="173.032"/>
      <point x="1349.208" y="173.032" type="curve" smooth="yes"/>
      <point x="1290.76" y="173.032"/>
      <point x="1261.776" y="193.664"/>
    </contour>
  </outline>
</glyph>
<glyph name="paragraph" format="2">
  <advance width="1431.0800000000002"/>
  <unicode hex="00B6"/>
  <outline>
    <contour>
      <point x="779.28" y="1414.0" type="line"/>
      <point x="493.848" y="1414.0" type="line" smooth="yes"/>
      <point x="201.272" y="1414.0"/>
      <point x="61.704" y="1276.6160000000002"/>
      <point x="61.704" y="1019.976" type="curve" smooth="yes"/>
      <point x="61.704" y="766.1120000000001"/>
      <point x="201.2" y="636.56"/>
      <point x="478.36" y="636.56" type="curve" smooth="yes"/>
      <point x="779.28" y="636.56" type="line"/>
    </contour>
    <contour>
      <point x="831.448" y="-218.76" type="line"/>
      <point x="831.448" y="1264.952" type="line"/>
      <point x="1078.336" y="1264.952" type="line"/>
      <point x="1078.336" y="1414.0" type="line"/>
      <point x="653.792" y="1414.0" type="line"/>
      <point x="653.792" y="-218.76" type="line"/>
    </contour>
    <contour>
      <point x="1166.0" y="-218.76" type="line"/>
      <point x="1166.0" y="1266.5439999999999" type="line"/>
      <point x="1347.0240000000001" y="1306.152" type="line"/>
      <point x="1347.0240000000001" y="1414.0" type="line"/>
      <point x="988.3439999999999" y="1414.0" type="line"/>
      <point x="988.3439999999999" y="-218.76" type="line"/>
    </contour>
  </outline>
</glyph>
<glyph name="guillemotright" format="2">
  <advance width="1446.568"/>
  <unicode hex="00BB"/>
  <outline>
    <contour>
      <point x="384.176" y="471.504" type="line"/>
      <point x="384.176" y="572.496" type="line"/>
      <point x="97.85600000000001" y="140.87199999999999" type="line"/>
      <point x="249.472" y="2.0319999999999965" type="line"/>
      <point x="721.072" y="408.048" type="line"/>
      <point x="721.072" y="635.952" type="line"/>
      <point x="249.472" y="1041.9679999999998" type="line"/>
      <point x="97.85600000000001" y="903.128" type="line"/>
    </contour>
    <contour>
      <point x="1004.336" y="471.504" type="line"/>
      <point x="1004.336" y="572.496" type="line"/>
      <point x="718.016" y="140.87199999999999" type="line"/>
      <point x="869.6320000000001" y="2.0319999999999965" type="line"/>
      <point x="1341.232" y="408.048" type="line"/>
      <point x="1341.232" y="635.952" type="line"/>
      <point x="869.6320000000001" y="1041.9679999999998" type="line"/>
      <point x="718.016" y="903.128" type="line"/>
    </contour>
  </outline>
</glyph>
<glyph name="questiondown" format="2">
  <advance width="1400.688"/>
  <unicode hex="00BF"/>
  <outline>
    <contour>
      <point x="748.272" y="-410.0" type="curve" smooth="yes"/>
      <point x="1209.048" y="-410.0"/>
      <point x="1347.28" y="-299.928"/>
      <point x="1347.28" y="-156.49599999999998" type="curve" smooth="yes"/>
      <point x="1347.28" y="-62.16799999999999"/>
      <point x="1275.5439999999999" y="-0.7279999999999944"/>
      <point x="1167.44" y="-0.7279999999999944" type="curve" smooth="yes"/>
      <point x="1095.608" y="-0.7279999999999944"/>
      <point x="1005.744" y="-183.704"/>
      <point x="789.296" y="-183.704" type="curve" smooth="yes"/>
      <point x="584.976" y="-183.704"/>
      <point x="508.712" y="-96.56800000000001"/>
      <point x="508.712" y="6.495999999999995" type="curve" smooth="yes"/>
      <point x="508.712" y="152.59199999999998"/>
      <point x="591.752" y="201.856"/>
      <point x="908.7919999999999" y="192.19199999999998" type="curve"/>
      <point x="858.2959999999999" y="537.808" type="line"/>
      <point x="600.992" y="537.808" type="line"/>
      <point x="555.312" y="308.608" type="line"/>
      <point x="645.7679999999999" y="399.44" type="line"/>
      <point x="220.18399999999997" y="384.96000000000004"/>
      <point x="78.112" y="248.97600000000003"/>
      <point x="78.112" y="-2.984" type="curve" smooth="yes"/>
      <point x="78.112" y="-226.744"/>
      <point x="260.488" y="-410.0"/>
    </contour>
    <contour>
      <point x="737.9200000000001" y="662.608" type="curve" smooth="yes"/>
      <point x="878.28" y="662.608"/>
      <point x="959.72" y="731.512"/>
      <point x="959.72" y="856.1360000000001" type="curve" smooth="yes"/>
      <point x="959.72" y="984.0"/>
      <point x="878.28" y="1054.848"/>
      <point x="737.9200000000001" y="1054.848" type="curve" smooth="yes"/>
      <point x="597.5600000000001" y="1054.848"/>
      <point x="516.12" y="984.0"/>
      <point x="516.12" y="856.1360000000001" type="curve" smooth="yes"/>
      <point x="516.12" y="731.512"/>
      <point x="597.5600000000001" y="662.608"/>
    </contour>
  </outline>
</glyph>
<glyph name="ccedilla" format="2">
  <advance width="1188.016"/>
  <unicode hex="00E7"/>
  <outline>
    <contour>
      <point x="718.792" y="1063.44" type="curve" smooth="yes"/>
      <point x="307.36" y="1063.44"/>
      <point x="84.50399999999999" y="832.5600000000001"/>
      <point x="84.50399999999999" y="501.888" type="curve" smooth="yes"/>
      <point x="84.50399999999999" y="156.816"/>
      <point x="290.336" y="-26.48"/>
      <point x="640.0640000000001" y="-26.48" type="curve" smooth="yes"/>
      <point x="755.1759999999999" y="-26.48"/>
      <point x="889.9200000000001" y="19.799999999999997"/>
      <point x="1100.9199999999998" y="152.512" type="curve"/>
      <point x="1100.92" y="294.8" type="line"/>
      <point x="987.752" y="262.296"/>
      <point x="881.9920000000001" y="244.72"/>
      <point x="755.0719999999999" y="244.72" type="curve" smooth="yes"/>
      <point x="519.312" y="244.72"/>
      <point x="432.13599999999997" y="333.008"/>
      <point x="432.13599999999997" y="599.952" type="curve" smooth="yes"/>
      <point x="432.13599999999997" y="826.768"/>
      <point x="515.888" y="901.648"/>
      <point x="651.344" y="901.648" type="curve" smooth="yes"/>
      <point x="716.696" y="901.648"/>
      <point x="916.784" y="672.736"/>
      <point x="964.4639999999999" y="672.736" type="curve" smooth="yes"/>
      <point x="1037.336" y="672.736"/>
      <point x="1126.328" y="741.328"/>
      <point x="1126.328" y="844.8399999999999" type="curve" smooth="yes"/>
      <point x="1126.328" y="965.144"/>
      <point x="1025.1680000000001" y="1063.44"/>
    </contour>
    <contour>
      <point x="538.6" y="-465.0" type="curve" smooth="yes"/>
      <point x="723.928" y="-465.0"/>
      <point x="851.256" y="-413.71999999999997"/>
      <point x="851.256" y="-269.68800000000005" type="curve" smooth="yes"/>
      <point x="851.256" y="-173.784"/>
      <point x="810.9040000000001" y="-113.968"/>
      <point x="563.264" y="-75.91199999999999" type="curve"/>
      <point x="570.672" y="-183.312" type="line"/>
      <point x="767.144" y="39.848" type="line"/>
      <point x="623.208" y="39.848" type="line"/>
      <point x="431.40000000000003" y="-186.112" type="line"/>
      <point x="431.40000000000003" y="-223.016" type="line"/>
      <point x="626.2320000000001" y="-247.88799999999998"/>
      <point x="656.472" y="-265.408"/>
      <point x="656.472" y="-309.112" type="curve" smooth="yes"/>
      <point x="656.472" y="-348.688"/>
      <point x="634.248" y="-366.20799999999997"/>
      <point x="571.024" y="-366.20799999999997" type="curve" smooth="yes"/>
      <point x="507.728" y="-366.20799999999997"/>
      <point x="437.99199999999996" y="-313.05600000000004"/>
      <point x="416.16" y="-313.05600000000004" type="curve" smooth="yes"/>
      <point x="392.104" y="-313.05600000000004"/>
      <point x="362.344" y="-332.87199999999996"/>
      <point x="362.344" y="-375.81600000000003" type="curve" smooth="yes"/>
      <point x="362.344" y="-435.944"/>
      <point x="396.40000000000003" y="-465.0"/>
    </contour>
  </outline>
</glyph>
<glyph name="eth" format="2">
  <advance width="1357.3359999999998"/>
  <unicode hex="00F0"/>
  <outline>
    <contour>
      <point x="652.512" y="-26.48" type="curve" smooth="yes"/>
      <point x="1021.504" y="-26.48"/>
      <point x="1251.8319999999999" y="138.248"/>
      <point x="1251.8319999999999" y="583.992" type="curve" smooth="yes"/>
      <point x="1251.8319999999999" y="993.68"/>
      <point x="1129.112" y="1303.664"/>
      <point x="314.632" y="1490.48" type="curve"/>
      <point x="248.952" y="1317.4" type="line"/>
      <point x="752.456" y="1162.552"/>
      <point x="890.848" y="1022.7600000000001"/>
      <point x="892.608" y="688.9839999999999" type="curve"/>
      <point x="907.0160000000001" y="687.224" type="line"/>
      <point x="889.232" y="852.064"/>
      <point x="779.432" y="984.7840000000001"/>
      <point x="579.392" y="984.7840000000001" type="curve" smooth="yes"/>
      <point x="272.712" y="984.7840000000001"/>
      <point x="85.8" y="816.48"/>
      <point x="85.8" y="488.224" type="curve" smooth="yes"/>
      <point x="85.8" y="166.152"/>
      <point x="294.112" y="-26.48"/>
    </contour>
    <contour>
      <point x="661.528" y="191.56" type="curve" smooth="yes"/>
      <point x="516.456" y="191.56"/>
      <point x="457.33599999999996" y="284.8550839694656"/>
      <point x="457.33599999999996" y="511.87199999999996" type="curve" smooth="yes"/>
      <point x="457.33599999999996" y="714.9130114942528"/>
      <point x="524.088" y="794.312"/>
      <point x="676.104" y="794.312" type="curve" smooth="yes"/>
      <point x="821.176" y="794.312"/>
      <point x="880.296" y="701.3152893401016"/>
      <point x="880.296" y="473.648" type="curve" smooth="yes"/>
      <point x="880.296" y="270.6097752161383"/>
      <point x="813.544" y="191.56"/>
    </contour>
    <contour>
      <point x="388.17600000000004" y="1017.8" type="line"/>
      <point x="1013.952" y="1384.9279999999999" type="line"/>
      <point x="949.6" y="1490.48" type="line"/>
      <point x="323.824" y="1123.352" type="line"/>
    </contour>
  </outline>
</glyph>
<glyph name="thorn" format="2">
  <advance width="1406.552"/>
  <unicode hex="00FE"/>
  <outline>
    <contour>
      <point x="158.616" y="1179.24" type="curve"/>
      <point x="158.616" y="-292.15200000000004" type="line"/>
      <point x="19.016000000000002" y="-327.616" type="line"/>
      <point x="19.016000000000002" y="-438.52" type="line"/>
      <point x="695.656" y="-438.52" type="line"/>
      <point x="695.656" y="-327.616" type="line"/>
      <point x="536.408" y="-292.856" type="line"/>
      <point x="536.408" y="278.128" type="line"/>
      <point x="520.704" y="278.128" type="line"/>
      <point x="524.2239999999999" y="106.688"/>
      <point x="642.248" y="-26.48"/>
      <point x="844.9119999999999" y="-26.48" type="curve" smooth="yes"/>
      <point x="1102.6960000000001" y="-26.48"/>
      <point x="1317.808" y="179.504"/>
      <point x="1317.808" y="558.48" type="curve" smooth="yes"/>
      <point x="1317.808" y="870.608"/>
      <point x="1163.36" y="1063.44"/>
      <point x="863.376" y="1063.44" type="curve" smooth="yes"/>
      <point x="780.5039999999999" y="1063.44"/>
      <point x="714.752" y="1042.344"/>
      <point x="466.76" y="875.208" type="curve"/>
      <point x="466.76" y="791.24" type="line"/>
      <point x="540.7120000000001" y="811.728"/>
      <point x="624.664" y="823.528"/>
      <point x="691.472" y="823.528" type="curve" smooth="yes"/>
      <point x="862.7040000000001" y="823.528"/>
      <point x="942.752" y="738.928"/>
      <point x="942.752" y="518.144" type="curve" smooth="yes"/>
      <point x="942.752" y="287.32800000000003"/>
      <point x="860.928" y="197.76000000000002"/>
      <point x="725.504" y="197.76000000000002" type="curve" smooth="yes"/>
      <point x="604.44" y="197.76000000000002"/>
      <point x="536.76" y="252.84"/>
      <point x="536.76" y="420.208" type="curve" smooth="yes"/>
      <point x="536.76" y="1223.568" type="line"/>
      <point x="560.648" y="1490.48" type="line"/>
      <point x="466.80800000000005" y="1490.48" type="line"/>
      <point x="-37.352000000000004" y="1402.336" type="line"/>
      <point x="-37.352000000000004" y="1288.992" type="line"/>
      <point x="40.647999999999996" y="1244.249652173913"/>
      <point x="132.616" y="1194.0367826086958"/>
    </contour>
  </outline>
</glyph>
<glyph name="aogonek" format="2">
  <advance width="1317.4720000000002"/>
  <unicode hex="0105"/>
  <outline>
    <contour>
      <point x="1298.936" y="59.096000000000004" type="line"/>
      <point x="1298.936" y="182.144" type="line"/>
      <point x="1264.824" y="176.08800000000002"/>
      <point x="1238.896" y="173.032"/>
      <point x="1216.672" y="173.032" type="curve" smooth="yes"/>
      <point x="1158.224" y="173.032"/>
      <point x="1129.24" y="193.664"/>
      <point x="1129.24" y="258.76" type="curve" smooth="yes"/>
      <point x="1129.24" y="706.8399999999999" type="line" smooth="yes"/>
      <point x="1129.24" y="932.424"/>
      <point x="1016.096" y="1063.4399999999998"/>
      <point x="697.848" y="1063.4399999999998" type="curve" smooth="yes"/>
      <point x="334.03200000000004" y="1063.4399999999998"/>
      <point x="99.688" y="896.7760000000001"/>
      <point x="99.688" y="788.576" type="curve" smooth="yes"/>
      <point x="99.688" y="735.5039999999999"/>
      <point x="144.63199999999998" y="698.856"/>
      <point x="241.536" y="698.856" type="curve" smooth="yes"/>
      <point x="334.416" y="698.856"/>
      <point x="381.08" y="711.6880000000001"/>
      <point x="404.08" y="772.76" type="curve" smooth="yes"/>
      <point x="427.08" y="832.5360000000001"/>
      <point x="444.672" y="893.088"/>
      <point x="463.37600000000003" y="973.848" type="curve"/>
      <point x="400.336" y="891.128" type="line"/>
      <point x="438.6" y="898.2959999999999"/>
      <point x="484.512" y="903.056"/>
      <point x="563.384" y="903.056" type="curve" smooth="yes"/>
      <point x="701.984" y="903.056"/>
      <point x="752.744" y="841.5920000000001"/>
      <point x="752.744" y="709.328" type="curve" smooth="yes"/>
      <point x="752.744" y="332.12800000000004" type="line" smooth="yes"/>
      <point x="752.744" y="262.472"/>
      <point x="686.864" y="214.632"/>
      <point x="588.096" y="214.632" type="curve" smooth="yes"/>
      <point x="487.42400000000004" y="214.632"/>
      <point x="457.23199999999997" y="247.784"/>
      <point x="457.23199999999997" y="335.71200000000005" type="curve" smooth="yes"/>
      <point x="457.23199999999997" y="434.62399999999997"/>
      <point x="500.736" y="474.48"/>
      <point x="805.4" y="505.32" type="curve"/>
      <point x="821.9440000000001" y="650.928" type="line"/>
      <point x="194.28799999999998" y="573.056"/>
      <point x="86.896" y="465.888"/>
      <point x="86.896" y="263.128" type="curve" smooth="yes"/>
      <point x="86.896" y="70.27999999999999"/>
      <point x="206.07999999999998" y="-26.48"/>
      <point x="425.04" y="-26.48" type="curve" smooth="yes"/>
      <point x="622.2239999999999" y="-26.48"/>
      <point x="725.672" y="59.952"/>
      <point x="776.592" y="292.736" type="curve"/>
      <point x="764.0559999999999" y="282.368" type="line"/>
      <point x="776.24" y="63.279999999999994"/>
      <point x="861.496" y="-24.72"/>
      <point x="1021.84" y="-24.72" type="curve" smooth="yes"/>
      <point x="1070.2240000000002" y="-24.72"/>
      <point x="1116.7199999999998" y="-17.128"/>
      <point x="1160.92" y="-4.24" type="curve"/>
      <point x="1150.9199999999998" y="10.704" type="line"/>
      <point x="1087.064" y="-47.6" type="line" smooth="yes"/>
      <point x="940.5360000000001" y="-170.84"/>
      <point x="908.8159999999999" y="-229.61599999999999"/>
      <point x="908.8159999999999" y="-299.096" type="curve" smooth="yes"/>
      <point x="908.8159999999999" y="-403.0"/>
      <point x="963.0" y="-465.0"/>
      <point x="1098.256" y="-465.0" type="curve" smooth="yes"/>
      <point x="1171.5520000000001" y="-465.0"/>
      <point x="1218.384" y="-447.35200000000003"/>
      <point x="1304.3999999999999" y="-387.704" type="curve"/>
      <point x="1304.4" y="-291.784" type="line"/>
      <point x="1251.1039999999998" y="-315.544"/>
      <point x="1224.808" y="-319.896"/>
      <point x="1184.216" y="-319.896" type="curve" smooth="yes"/>
      <point x="1135.3439999999998" y="-319.896"/>
      <point x="1100.752" y="-295.024"/>
      <point x="1100.752" y="-245.15200000000002" type="curve" smooth="yes"/>
      <point x="1100.752" y="-204.928"/>
      <point x="1113.624" y="-172.0"/>
      <point x="1177.328" y="-91.96000000000001" type="curve" smooth="yes"/>
    </contour>
  </outline>
</glyph>
<glyph name="Eng" format="2">
  <advance width="1864.232"/>
  <unicode hex="014A"/>
  <outline>
    <contour>
      <point x="1422.128" y="558.48" type="line"/>
      <point x="809.992" y="1414.0" type="line"/>
      <point x="92.672" y="1414.0" type="line"/>
      <point x="92.672" y="1288.56" type="line"/>
      <point x="280.672" y="1229.3039999999999" type="line"/>
      <point x="280.672" y="171.736" type="line"/>
      <point x="105.632" y="125.44" type="line"/>
      <point x="105.632" y="0.0" type="line"/>
      <point x="705.9200000000001" y="0.0" type="line"/>
      <point x="705.9200000000001" y="125.44" type="line"/>
      <point x="524.544" y="171.736" type="line"/>
      <point x="524.544" y="1298.0" type="line"/>
      <point x="419.74399999999997" y="1273.376" type="line"/>
      <point x="1418.96" y="-119.488" type="line"/>
    </contour>
    <contour>
      <point x="1609.152" y="-40.92" type="curve" smooth="yes"/>
      <point x="1609.152" y="1242.264" type="line"/>
      <point x="1784.192" y="1288.56" type="line"/>
      <point x="1784.192" y="1414.0" type="line"/>
      <point x="1183.904" y="1414.0" type="line"/>
      <point x="1183.904" y="1288.56" type="line"/>
      <point x="1365.28" y="1242.264" type="line"/>
      <point x="1365.28" y="-35.44" type="line" smooth="yes"/>
      <point x="1365.28" y="-181.424"/>
      <point x="1316.536" y="-226.832"/>
      <point x="1188.072" y="-226.832" type="curve" smooth="yes"/>
      <point x="1091.816" y="-226.832"/>
      <point x="997.208" y="-120.912"/>
      <point x="960.4879999999999" y="-120.912" type="curve" smooth="yes"/>
      <point x="894.288" y="-120.912"/>
      <point x="837.256" y="-185.16799999999998"/>
      <point x="837.256" y="-264.79200000000003" type="curve" smooth="yes"/>
      <point x="837.256" y="-386.744"/>
      <point x="910.736" y="-465.0"/>
      <point x="1146.208" y="-465.0" type="curve" smooth="yes"/>
      <point x="1465.784" y="-465.0"/>
      <point x="1609.152" y="-331.672"/>
    </contour>
  </outline>
</glyph>
<glyph name="eng" format="2">
  <advance width="1477.488"/>
  <unicode hex="014B"/>
  <outline>
    <contour>
      <point x="609.336" y="826.112" type="line"/>
      <point x="509.27200000000005" y="1065.2" type="line"/>
      <point x="436.28" y="1065.2" type="line"/>
      <point x="67.688" y="939.1999999999999" type="line"/>
      <point x="67.688" y="857.376" type="line"/>
      <point x="158.68800000000002" y="780.5016393771974"/>
      <point x="209.192" y="739.9850102604578"/>
      <point x="231.192" y="721.4" type="curve"/>
      <point x="231.192" y="146.36800000000002" type="line"/>
      <point x="93.352" y="110.904" type="line"/>
      <point x="93.352" y="0.0" type="line"/>
      <point x="699.944" y="0.0" type="line"/>
      <point x="699.944" y="110.904" type="line"/>
      <point x="609.336" y="137.296" type="line"/>
    </contour>
    <contour>
      <point x="954.728" y="42.896" type="line" smooth="yes"/>
      <point x="954.728" y="-82.89599999999999"/>
      <point x="947.024" y="-102.08"/>
      <point x="718.208" y="-319.216" type="curve"/>
      <point x="819.2959999999999" y="-465.0" type="line"/>
      <point x="1277.56" y="-232.608"/>
      <point x="1332.872" y="-154.112"/>
      <point x="1332.872" y="83.952" type="curve" smooth="yes"/>
      <point x="1332.872" y="744.216" type="line" smooth="yes"/>
      <point x="1332.872" y="949.2"/>
      <point x="1221.8" y="1063.44"/>
      <point x="985.672" y="1063.44" type="curve" smooth="yes"/>
      <point x="873.928" y="1063.44"/>
      <point x="850.352" y="1054.3280000000002"/>
      <point x="560.1759999999999" y="828.04" type="curve"/>
      <point x="578.768" y="743.68" type="line"/>
      <point x="649.456" y="761.664"/>
      <point x="727.2959999999999" y="772.592"/>
      <point x="792.84" y="772.592" type="curve" smooth="yes"/>
      <point x="914.6479999999999" y="772.592"/>
      <point x="954.728" y="730.2"/>
      <point x="954.728" y="639.448" type="curve" smooth="yes"/>
    </contour>
  </outline>
</glyph>
<glyph name="scedilla" format="2">
  <advance width="1169.2559999999999"/>
  <unicode hex="015F"/>
  <outline>
    <contour>
      <point x="642.9680000000001" y="1063.44" type="curve" smooth="yes"/>
      <point x="288.336" y="1063.44"/>
      <point x="102.376" y="947.184"/>
      <point x="102.376" y="721.488" type="curve" smooth="yes"/>
      <point x="102.376" y="552.664"/>
      <point x="181.48" y="466.968"/>
      <point x="402.20799999999997" y="427.304" type="curve" smooth="yes"/>
      <point x="622.936" y="387.64"/>
      <point x="728.384" y="383.792"/>
      <point x="728.384" y="271.576" type="curve" smooth="yes"/>
      <point x="728.384" y="189.736"/>
      <point x="665.7280000000001" y="149.048"/>
      <point x="485.648" y="149.048" type="curve" smooth="yes"/>
      <point x="403.408" y="149.048"/>
      <point x="295.264" y="157.99200000000002"/>
      <point x="234.576" y="173.56799999999998" type="curve"/>
      <point x="392.56800000000004" y="50.424" type="line"/>
      <point x="231.392" y="324.352" type="line"/>
      <point x="91.98400000000001" y="324.352" type="line"/>
      <point x="139.52" y="12.672" type="line"/>
      <point x="229.648" y="-9.664"/>
      <point x="386.25600000000003" y="-25.072"/>
      <point x="531.488" y="-25.072" type="curve" smooth="yes"/>
      <point x="920.696" y="-25.072"/>
      <point x="1086.64" y="109.664"/>
      <point x="1086.64" y="332.79200000000003" type="curve" smooth="yes"/>
      <point x="1086.64" y="550.28"/>
      <point x="954.312" y="620.808"/>
      <point x="730.3439999999999" y="653.472" type="curve" smooth="yes"/>
      <point x="506.376" y="686.1360000000001"/>
      <point x="442.192" y="707.208"/>
      <point x="442.192" y="795.3119999999999" type="curve" smooth="yes"/>
      <point x="442.192" y="863.872"/>
      <point x="500.568" y="897.912"/>
      <point x="640.704" y="897.912" type="curve" smooth="yes"/>
      <point x="697.208" y="897.912"/>
      <point x="791.024" y="884.8000000000001"/>
      <point x="877.0079999999999" y="859.872" type="curve"/>
      <point x="725.1360000000001" y="989.96" type="line"/>
      <point x="868.296" y="748.44" type="line"/>
      <point x="1015.664" y="748.44" type="line"/>
      <point x="986.96" y="1026.752" type="line"/>
      <point x="877.976" y="1052.976"/>
      <point x="775.368" y="1063.44"/>
    </contour>
    <contour>
      <point x="496.752" y="-465.0" type="curve" smooth="yes"/>
      <point x="682.08" y="-465.0"/>
      <point x="809.408" y="-413.71999999999997"/>
      <point x="809.408" y="-269.68800000000005" type="curve" smooth="yes"/>
      <point x="809.408" y="-173.784"/>
      <point x="769.056" y="-113.968"/>
      <point x="521.416" y="-75.91199999999999" type="curve"/>
      <point x="528.824" y="-183.312" type="line"/>
      <point x="725.296" y="39.848" type="line"/>
      <point x="581.36" y="39.848" type="line"/>
      <point x="389.552" y="-186.112" type="line"/>
      <point x="389.552" y="-223.016" type="line"/>
      <point x="584.384" y="-247.88799999999998"/>
      <point x="614.624" y="-265.408"/>
      <point x="614.624" y="-309.112" type="curve" smooth="yes"/>
      <point x="614.624" y="-348.688"/>
      <point x="592.4000000000001" y="-366.20799999999997"/>
      <point x="529.176" y="-366.20799999999997" type="curve" smooth="yes"/>
      <point x="465.88" y="-366.20799999999997"/>
      <point x="396.144" y="-313.05600000000004"/>
      <point x="374.312" y="-313.05600000000004" type="curve" smooth="yes"/>
      <point x="350.256" y="-313.05600000000004"/>
      <point x="320.49600000000004" y="-332.87199999999996"/>
      <point x="320.49600000000004" y="-375.81600000000003" type="curve" smooth="yes"/>
      <point x="320.49600000000004" y="-435.944"/>
      <point x="354.552" y="-465.0"/>
    </contour>
  </outline>
</glyph>
<glyph name="uni0162" format="2">
  <advance width="1673.1200000000001"/>
  <unicode hex="0162"/>
  <outline>
    <contour>
      <point x="623.88" y="1355.8319999999999" type="line"/>
      <point x="623.88" y="173.03199999999998" type="line"/>
      <point x="438.984" y="125.44" type="line"/>
      <point x="438.984" y="0.0" type="line"/>
      <point x="1234.1360000000002" y="0.0" type="line"/>
      <point x="1234.1360000000002" y="125.44" type="line"/>
      <point x="1049.24" y="173.03199999999998" type="line"/>
      <point x="1049.24" y="1355.8319999999999" type="line"/>
    </contour>
    <contour>
      <point x="1381.808" y="1168.576" type="line"/>
      <point x="1277.8560000000002" y="1277.208" type="line"/>
      <point x="1437.4959999999999" y="890.384" type="line"/>
      <point x="1622.784" y="890.384" type="line"/>
      <point x="1549.376" y="1510.48" type="line"/>
      <point x="1412.104" y="1510.48" type="line"/>
      <point x="1305.536" y="1374.152" type="line"/>
      <point x="1456.1599999999999" y="1414.0" type="line"/>
      <point x="216.31199999999998" y="1414.0" type="line"/>
      <point x="367.584" y="1374.152" type="line"/>
      <point x="261.016" y="1510.48" type="line"/>
      <point x="123.744" y="1510.48" type="line"/>
      <point x="50.336" y="890.384" type="line"/>
      <point x="235.624" y="890.384" type="line"/>
      <point x="395.264" y="1277.208" type="line"/>
      <point x="291.312" y="1168.576" type="line"/>
    </contour>
    <contour>
      <point x="740.304" y="-465.0" type="curve" smooth="yes"/>
      <point x="925.632" y="-465.0"/>
      <point x="1052.96" y="-413.71999999999997"/>
      <point x="1052.96" y="-269.68800000000005" type="curve" smooth="yes"/>
      <point x="1052.96" y="-173.784"/>
      <point x="1012.608" y="-113.968"/>
      <point x="764.968" y="-75.91199999999999" type="curve"/>
      <point x="772.376" y="-183.312" type="line"/>
      <point x="968.848" y="39.848" type="line"/>
      <point x="824.912" y="39.848" type="line"/>
      <point x="633.1039999999999" y="-186.112" type="line"/>
      <point x="633.1039999999999" y="-223.016" type="line"/>
      <point x="827.936" y="-247.88799999999998"/>
      <point x="858.176" y="-265.408"/>
      <point x="858.176" y="-309.112" type="curve" smooth="yes"/>
      <point x="858.176" y="-348.688"/>
      <point x="835.952" y="-366.20799999999997"/>
      <point x="772.728" y="-366.20799999999997" type="curve" smooth="yes"/>
      <point x="709.432" y="-366.20799999999997"/>
      <point x="639.696" y="-313.05600000000004"/>
      <point x="617.8639999999999" y="-313.05600000000004" type="curve" smooth="yes"/>
      <point x="593.8080000000001" y="-313.05600000000004"/>
      <point x="564.048" y="-332.87199999999996"/>
      <point x="564.048" y="-375.81600000000003" type="curve" smooth="yes"/>
      <point x="564.048" y="-435.944"/>
      <point x="598.1039999999999" y="-465.0"/>
    </contour>
  </outline>
</glyph>
<glyph name="uni0163" format="2">
  <advance width="1053.424"/>
  <unicode hex="0163"/>
  <outline>
    <contour>
      <point x="594.5360000000001" y="367.08" type="curve" smooth="yes"/>
      <point x="594.5360000000001" y="1011.032" type="line"/>
      <point x="594.5360000000001" y="1300.464" type="line"/>
      <point x="488.616" y="1300.464" type="line"/>
      <point x="347.8606822742475" y="1191.2"/>
      <point x="120.58980602006687" y="1060.776"/>
      <point x="19.855999999999998" y="1023.6400000000001" type="curve"/>
      <point x="19.855999999999998" y="933.9599999999999" type="line"/>
      <point x="217.688" y="801.2560000000001" type="line"/>
      <point x="217.688" y="274.152" type="line" smooth="yes"/>
      <point x="217.688" y="74.44"/>
      <point x="344.872" y="-26.480000000000004"/>
      <point x="563.208" y="-26.480000000000004" type="curve" smooth="yes"/>
      <point x="674.664" y="-26.480000000000004"/>
      <point x="767.9599999999999" y="1.8719999999999999"/>
      <point x="1011.848" y="109.71999999999998" type="curve"/>
      <point x="1011.848" y="247.208" type="line"/>
      <point x="923.48" y="228.448"/>
      <point x="850.888" y="220.336"/>
      <point x="788.352" y="220.336" type="curve" smooth="yes"/>
      <point x="642.28" y="220.336"/>
      <point x="594.5360000000001" y="256.8"/>
    </contour>
    <contour>
      <point x="440.77599999999995" y="817.808" type="line"/>
      <point x="983.7760000000001" y="817.808" type="line"/>
      <point x="983.7760000000001" y="1036.96" type="line"/>
      <point x="446.77599999999995" y="1036.96" type="line"/>
    </contour>
    <contour>
      <point x="533.616" y="-465.0" type="curve" smooth="yes"/>
      <point x="718.944" y="-465.0"/>
      <point x="846.272" y="-413.71999999999997"/>
      <point x="846.272" y="-269.68800000000005" type="curve" smooth="yes"/>
      <point x="846.272" y="-173.784"/>
      <point x="805.92" y="-113.968"/>
      <point x="558.28" y="-75.91199999999999" type="curve"/>
      <point x="565.688" y="-183.312" type="line"/>
      <point x="762.16" y="39.848" type="line"/>
      <point x="618.224" y="39.848" type="line"/>
      <point x="426.416" y="-186.112" type="line"/>
      <point x="426.416" y="-223.016" type="line"/>
      <point x="621.2479999999999" y="-247.88799999999998"/>
      <point x="651.4879999999999" y="-265.408"/>
      <point x="651.4879999999999" y="-309.112" type="curve" smooth="yes"/>
      <point x="651.4879999999999" y="-348.688"/>
      <point x="629.264" y="-366.20799999999997"/>
      <point x="566.0400000000001" y="-366.20799999999997" type="curve" smooth="yes"/>
      <point x="502.74399999999997" y="-366.20799999999997"/>
      <point x="433.008" y="-313.05600000000004"/>
      <point x="411.176" y="-313.05600000000004" type="curve" smooth="yes"/>
      <point x="387.12" y="-313.05600000000004"/>
      <point x="357.36" y="-332.87199999999996"/>
      <point x="357.36" y="-375.81600000000003" type="curve" smooth="yes"/>
      <point x="357.36" y="-435.944"/>
      <point x="391.416" y="-465.0"/>
    </contour>
  </outline>
</glyph>
<glyph name="Uogonek" format="2">
  <advance width="1793.52"/>
  <unicode hex="0172"/>
  <outline>
    <contour>
      <point x="1318.584" y="573.28" type="line" smooth="yes"/>
      <point x="1318.584" y="365.10400000000004"/>
      <point x="1217.336" y="273.584"/>
      <point x="993.088" y="273.584" type="curve" smooth="yes"/>
      <point x="769.0400000000001" y="273.584"/>
      <point x="658.016" y="358.312"/>
      <point x="658.016" y="549.8639999999999" type="curve" smooth="yes"/>
      <point x="658.016" y="1242.264" type="line"/>
      <point x="835.8720000000001" y="1288.56" type="line"/>
      <point x="835.8720000000001" y="1414.0" type="line"/>
      <point x="54.800000000000004" y="1414.0" type="line"/>
      <point x="54.800000000000004" y="1288.56" type="line"/>
      <point x="232.656" y="1242.264" type="line"/>
      <point x="232.656" y="525.888" type="line" smooth="yes"/>
      <point x="232.656" y="137.392"/>
      <point x="459.68800000000005" y="-26.48"/>
      <point x="921.472" y="-26.48" type="curve" smooth="yes"/>
      <point x="1340.5520000000001" y="-26.48"/>
      <point x="1562.4560000000001" y="156.816"/>
      <point x="1562.4560000000001" y="556.0640000000001" type="curve" smooth="yes"/>
      <point x="1562.4560000000001" y="1242.264" type="line"/>
      <point x="1740.3120000000001" y="1288.56" type="line"/>
      <point x="1740.3120000000001" y="1414.0" type="line"/>
      <point x="1140.7279999999998" y="1414.0" type="line"/>
      <point x="1140.7279999999998" y="1288.56" type="line"/>
      <point x="1318.584" y="1242.264" type="line"/>
    </contour>
    <contour>
      <point x="1016.68" y="-76.70400000000001" type="curve" smooth="yes"/>
      <point x="1120.04" y="78.696" type="line"/>
      <point x="1020.544" y="78.696" type="line"/>
      <point x="900.2" y="-47.248" type="line" smooth="yes"/>
      <point x="777.32" y="-175.08"/>
      <point x="756.672" y="-229.61599999999999"/>
      <point x="756.672" y="-299.096" type="curve" smooth="yes"/>
      <point x="756.672" y="-403.0"/>
      <point x="810.856" y="-465.0"/>
      <point x="946.112" y="-465.0" type="curve" smooth="yes"/>
      <point x="1019.4079999999999" y="-465.0"/>
      <point x="1066.24" y="-447.35200000000003"/>
      <point x="1152.256" y="-387.704" type="curve"/>
      <point x="1152.256" y="-291.784" type="line"/>
      <point x="1098.96" y="-315.544"/>
      <point x="1072.664" y="-319.896"/>
      <point x="1032.0720000000001" y="-319.896" type="curve" smooth="yes"/>
      <point x="983.2" y="-319.896"/>
      <point x="948.6080000000001" y="-295.024"/>
      <point x="948.6080000000001" y="-245.15200000000002" type="curve" smooth="yes"/>
      <point x="948.6080000000001" y="-196.504"/>
      <point x="961.96" y="-162.632"/>
    </contour>
  </outline>
</glyph>
<glyph name="uogonek" format="2">
  <advance width="1473.6879999999999"/>
  <unicode hex="0173"/>
  <outline>
    <contour>
      <point x="574.168" y="385.752" type="curve" smooth="yes"/>
      <point x="574.168" y="883.184" type="line"/>
      <point x="595.52" y="1046.96" type="line"/>
      <point x="32.112" y="1024.0" type="line"/>
      <point x="32.112" y="923.76" type="line"/>
      <point x="196.024" y="828.544" type="line"/>
      <point x="196.024" y="277.984" type="line" smooth="yes"/>
      <point x="196.024" y="82.408"/>
      <point x="302.392" y="-26.48"/>
      <point x="527.4639999999999" y="-26.48" type="curve" smooth="yes"/>
      <point x="633.504" y="-26.48"/>
      <point x="658.024" y="-18.368000000000002"/>
      <point x="934.1999999999999" y="198.568" type="curve"/>
      <point x="916.6080000000001" y="291.22400000000005" type="line"/>
      <point x="847.3839999999999" y="274.296"/>
      <point x="776.248" y="264.368"/>
      <point x="721.9440000000001" y="264.368" type="curve" smooth="yes"/>
      <point x="613.432" y="264.368"/>
      <point x="574.168" y="298.87199999999996"/>
    </contour>
    <contour>
      <point x="977.4240000000001" y="-26.479999999999997" type="line"/>
      <point x="1031.624" y="-26.479999999999997" type="line"/>
      <point x="1434.76" y="101.464" type="line"/>
      <point x="1434.76" y="174.56799999999998" type="line"/>
      <point x="1392.76" y="202.61565217391305"/>
      <point x="1285.128" y="273.5167701863354"/>
      <point x="1261.1280000000002" y="289.544" type="curve"/>
      <point x="1261.1280000000002" y="874.1120000000001" type="line"/>
      <point x="1268.168" y="1040.48" type="line"/>
      <point x="821.032" y="1036.96" type="line"/>
      <point x="821.032" y="936.72" type="line"/>
      <point x="882.984" y="861.592" type="line"/>
      <point x="882.984" y="183.62400000000002" type="line"/>
    </contour>
    <contour>
      <point x="1068.5040000000001" y="-76.0" type="curve" smooth="yes"/>
      <point x="1177.144" y="78.696" type="line"/>
      <point x="1077.6480000000001" y="78.696" type="line"/>
      <point x="952.376" y="-48.304" type="line" smooth="yes"/>
      <point x="826.328" y="-174.728"/>
      <point x="807.44" y="-229.61599999999999"/>
      <point x="807.44" y="-299.096" type="curve" smooth="yes"/>
      <point x="807.44" y="-403.0"/>
      <point x="861.624" y="-465.0"/>
      <point x="996.88" y="-465.0" type="curve" smooth="yes"/>
      <point x="1070.176" y="-465.0"/>
      <point x="1117.008" y="-447.35200000000003"/>
      <point x="1203.0240000000001" y="-387.704" type="curve"/>
      <point x="1203.024" y="-291.784" type="line"/>
      <point x="1149.728" y="-315.544"/>
      <point x="1123.432" y="-319.896"/>
      <point x="1082.8400000000001" y="-319.896" type="curve" smooth="yes"/>
      <point x="1033.9679999999998" y="-319.896"/>
      <point x="999.376" y="-295.024"/>
      <point x="999.376" y="-243.856" type="curve" smooth="yes"/>
      <point x="999.376" y="-195.20799999999997"/>
      <point x="1010.264" y="-160.872"/>
    </contour>
  </outline>
</glyph>
<glyph name="uhorn" format="2">
  <advance width="1521.4959999999999"/>
  <unicode hex="01B0"/>
  <anchor x="711.496" y="1036.96" name="top"/>
  <anchor x="733.1120000000001" y="0.0" name="bottom"/>
  <outline>
    <contour>
      <point x="574.168" y="385.752" type="curve" smooth="yes"/>
      <point x="574.168" y="883.184" type="line"/>
      <point x="595.52" y="1046.96" type="line"/>
      <point x="32.112" y="1024.0" type="line"/>
      <point x="32.112" y="923.76" type="line"/>
      <point x="196.024" y="828.544" type="line"/>
      <point x="196.024" y="277.984" type="line" smooth="yes"/>
      <point x="196.024" y="82.408"/>
      <point x="302.392" y="-26.48"/>
      <point x="527.4639999999999" y="-26.48" type="curve" smooth="yes"/>
      <point x="633.504" y="-26.48"/>
      <point x="658.024" y="-18.368000000000002"/>
      <point x="934.1999999999999" y="198.568" type="curve"/>
      <point x="916.6080000000001" y="291.22400000000005" type="line"/>
      <point x="847.3839999999999" y="274.296"/>
      <point x="776.248" y="264.368"/>
      <point x="721.9440000000001" y="264.368" type="curve" smooth="yes"/>
      <point x="613.432" y="264.368"/>
      <point x="574.168" y="298.87199999999996"/>
    </contour>
    <contour>
      <point x="1336.448" y="1142.0720000000001" type="curve" smooth="yes"/>
      <point x="1336.448" y="1077.8880000000001"/>
      <point x="1302.688" y="1041.184"/>
      <point x="1201.152" y="1040.1280000000002" type="curve" smooth="yes"/>
      <point x="821.032" y="1036.96" type="line"/>
      <point x="821.032" y="936.72" type="line"/>
      <point x="882.984" y="861.592" type="line"/>
      <point x="882.984" y="183.62400000000002" type="line"/>
      <point x="977.4240000000001" y="-26.479999999999997" type="line"/>
      <point x="1031.624" y="-26.479999999999997" type="line"/>
      <point x="1434.76" y="101.464" type="line"/>
      <point x="1434.76" y="174.56799999999998" type="line"/>
      <point x="1392.76" y="202.61565217391305"/>
      <point x="1285.128" y="273.5167701863354"/>
      <point x="1261.1280000000002" y="289.544" type="curve"/>
      <point x="1261.1280000000002" y="876.7040000000001" type="line"/>
      <point x="1263.944" y="918.728" type="line"/>
      <point x="1472.992" y="927.192"/>
      <point x="1578.712" y="1024.744"/>
      <point x="1578.712" y="1193.48" type="curve" smooth="yes"/>
      <point x="1578.712" y="1309.624"/>
      <point x="1509.104" y="1350.4560000000001"/>
      <point x="1424.3120000000001" y="1350.4560000000001" type="curve" smooth="yes"/>
      <point x="1358.0" y="1350.4560000000001"/>
      <point x="1297.3919999999998" y="1311.9759999999999"/>
      <point x="1296.096" y="1265.552" type="curve" smooth="yes"/>
      <point x="1295.448" y="1248.664"/>
      <point x="1336.448" y="1209.2559999999999"/>
    </contour>
  </outline>
</glyph>
<glyph name="uni0259" format="2">
  <advance width="1234.0720000000001"/>
  <unicode hex="0259"/>
  <outline>
    <contour>
      <point x="594.064" y="-26.48" type="curve" smooth="yes"/>
      <point x="948.384" y="-26.48"/>
      <point x="1147.9199999999998" y="189.76000000000002"/>
      <point x="1147.9199999999998" y="535.072" type="curve" smooth="yes"/>
      <point x="1147.9199999999998" y="880.144"/>
      <point x="941.144" y="1063.44"/>
      <point x="581.84" y="1063.44" type="curve" smooth="yes"/>
      <point x="458.248" y="1063.44"/>
      <point x="307.56" y="1011.624"/>
      <point x="110.408" y="884.448" type="curve"/>
      <point x="110.408" y="755.768" type="line"/>
      <point x="214.072" y="781.752"/>
      <point x="322.47999999999996" y="801.312"/>
      <point x="460.96" y="801.312" type="curve" smooth="yes"/>
      <point x="709.928" y="801.312"/>
      <point x="800.288" y="717.064"/>
      <point x="800.288" y="445.728" type="curve" smooth="yes"/>
      <point x="800.288" y="235.016"/>
      <point x="740.296" y="168.6"/>
      <point x="613.3199999999999" y="168.6" type="curve" smooth="yes"/>
      <point x="493.128" y="168.6"/>
      <point x="435.528" y="221.144"/>
      <point x="438.952" y="459.64" type="curve"/>
      <point x="299.30400000000003" y="401.70399999999995" type="line"/>
      <point x="888.1279999999999" y="401.704" type="line"/>
      <point x="886.016" y="553.256" type="line"/>
      <point x="83.61600000000001" y="553.256" type="line"/>
      <point x="96.984" y="144.36"/>
      <point x="244.792" y="-26.48"/>
    </contour>
  </outline>
</glyph>
<glyph name="gravecomb" format="2">
  <unicode hex="0300"/>
  <anchor x="0.0" y="1036.96" name="_top"/>
  <anchor x="0.0" y="1535.0" name="top"/>
  <outline>
    <contour>
      <point x="105.048" y="1138.0" type="line"/>
      <point x="-59.56799999999999" y="1464.0" type="line"/>
      <point x="-427.61600000000004" y="1464.0" type="line"/>
      <point x="-427.61600000000004" y="1400.912" type="line"/>
      <point x="-75.976" y="1138.0" type="line"/>
    </contour>
  </outline>
</glyph>
<glyph name="hookabovecomb" format="2">
  <unicode hex="0309"/>
  <anchor x="0.0" y="1036.96" name="_top"/>
  <anchor x="0.0" y="1464.0" name="top"/>
  <outline>
    <contour>
      <point x="-212.312" y="1341.192" type="line"/>
      <point x="18.56" y="1347.024"/>
      <point x="44.728" y="1326.208"/>
      <point x="44.728" y="1288.2800000000002" type="curve" smooth="yes"/>
      <point x="44.728" y="1254.1119999999999"/>
      <point x="27.911999999999992" y="1236.8880000000001"/>
      <point x="-105.47999999999999" y="1215.1999999999998" type="curve"/>
      <point x="-87.48" y="1121.112" type="line"/>
      <point x="187.048" y="1161.632"/>
      <point x="257.584" y="1241.888"/>
      <point x="257.584" y="1346.424" type="curve" smooth="yes"/>
      <point x="257.584" y="1460.792"/>
      <point x="198.69600000000003" y="1518.144"/>
      <point x="-207.20000000000002" y="1517.664" type="curve"/>
    </contour>
  </outline>
</glyph>
<glyph name="uni030C" format="2">
  <unicode hex="030C"/>
  <anchor x="0.0" y="1036.96" name="_top"/>
  <anchor x="0.0" y="1464.0" name="top"/>
  <outline>
    <contour>
      <point x="38.368" y="1285.176" type="line"/>
      <point x="-162.192" y="1464.0" type="line"/>
      <point x="-398.416" y="1464.0" type="line"/>
      <point x="-138.416" y="1138.0" type="line"/>
      <point x="138.416" y="1138.0" type="line"/>
      <point x="398.416" y="1464.0" type="line"/>
      <point x="162.192" y="1464.0" type="line"/>
      <point x="-38.368" y="1285.176" type="line"/>
    </contour>
  </outline>
</glyph>
<glyph name="uni0326" format="2">
  <unicode hex="0326"/>
  <anchor x="0.0" y="0.0" name="_bottom"/>
  <anchor x="0.0" y="-465.0" name="bottom"/>
  <outline>
    <contour>
      <point x="-134.128" y="-366.28" type="curve"/>
      <point x="-120.128" y="-459.016" type="line"/>
      <point x="106.72" y="-429.328"/>
      <point x="156.144" y="-336.624"/>
      <point x="156.144" y="-237.848" type="curve" smooth="yes"/>
      <point x="156.144" y="-120.592"/>
      <point x="103.90400000000001" y="-81.0"/>
      <point x="12.704" y="-81.0" type="curve" smooth="yes"/>
      <point x="-94.384" y="-81.0"/>
      <point x="-134.92000000000002" y="-124.83200000000001"/>
      <point x="-134.92000000000002" y="-205.144" type="curve" smooth="yes"/>
      <point x="-134.92000000000002" y="-225.96"/>
      <point x="-19.624000000000002" y="-233.84799999999998"/>
      <point x="-19.624000000000002" y="-296.79200000000003" type="curve" smooth="yes"/>
      <point x="-19.624000000000002" y="-339.608"/>
      <point x="-40.44" y="-354.05600000000004"/>
    </contour>
  </outline>
</glyph>
<glyph name="uni0335" format="2">
  <unicode hex="0335"/>
  <anchor x="0.0" y="1207.0" name="_center"/>
  <outline>
    <contour>
      <point x="-385.216" y="1143.76" type="line"/>
      <point x="385.216" y="1143.76" type="line"/>
      <point x="385.216" y="1270.24" type="line"/>
      <point x="-385.216" y="1270.24" type="line"/>
    </contour>
  </outline>
</glyph>
<glyph name="endash" format="2">
  <advance width="1087.856"/>
  <unicode hex="2013"/>
  <outline>
    <contour>
      <point x="127.448" y="622.696" type="line"/>
      <point x="127.448" y="421.304" type="line"/>
      <point x="960.408" y="421.304" type="line"/>
      <point x="960.408" y="622.696" type="line"/>
    </contour>
  </outline>
</glyph>
<glyph name="minute" format="2">
  <advance width="565.08"/>
  <unicode hex="2032"/>
  <outline>
    <contour>
      <point x="117.984" y="836.256" type="line"/>
      <point x="332.672" y="836.256" type="line"/>
      <point x="495.92800000000005" y="1346.56" type="line"/>
      <point x="495.92800000000005" y="1414.0" type="line"/>
      <point x="168.856" y="1414.0" type="line"/>
    </contour>
  </outline>
</glyph>
<glyph name="guilsinglleft" format="2">
  <advance width="800.168"/>
  <unicode hex="2039"/>
  <outline>
    <contour>
      <point x="424.64000000000004" y="572.496" type="line"/>
      <point x="424.64000000000004" y="471.504" type="line"/>
      <point x="710.96" y="903.128" type="line"/>
      <point x="559.3439999999999" y="1041.9679999999998" type="line"/>
      <point x="87.744" y="635.952" type="line"/>
      <point x="87.744" y="408.048" type="line"/>
      <point x="559.3439999999999" y="2.0319999999999965" type="line"/>
      <point x="710.96" y="140.87199999999999" type="line"/>
    </contour>
  </outline>
</glyph>
<glyph name="guilsinglright" format="2">
  <advance width="826.408"/>
  <unicode hex="203A"/>
  <outline>
    <contour>
      <point x="384.176" y="471.504" type="line"/>
      <point x="384.176" y="572.496" type="line"/>
      <point x="97.85600000000001" y="140.87199999999999" type="line"/>
      <point x="249.472" y="2.0319999999999965" type="line"/>
      <point x="721.072" y="408.048" type="line"/>
      <point x="721.072" y="635.952" type="line"/>
      <point x="249.472" y="1041.9679999999998" type="line"/>
      <point x="97.85600000000001" y="903.128" type="line"/>
    </contour>
  </outline>
</glyph>
<glyph name="minus" format="2">
  <advance width="1140.0"/>
  <unicode hex="2212"/>
  <outline>
    <contour>
      <point x="119.328" y="634.8800000000001" type="line"/>
      <point x="119.328" y="405.248" type="line"/>
      <point x="1020.672" y="405.248" type="line"/>
      <point x="1020.672" y="634.8800000000001" type="line"/>
    </contour>
  </outline>
</glyph>
<glyph name="uni27E8" format="2">
  <advance width="1140.0"/>
  <unicode hex="27E8"/>
  <outline>
    <contour>
      <point x="453.08799999999997" y="674.112" type="line"/>
      <point x="982.2239999999999" y="1414.0" type="line"/>
      <point x="677.024" y="1414.0" type="line"/>
      <point x="185.66400000000002" y="743.6080000000001" type="line"/>
      <point x="185.66400000000002" y="670.04" type="line"/>
      <point x="677.024" y="0.0" type="line"/>
      <point x="982.2239999999999" y="0.0" type="line"/>
      <point x="452.736" y="740.24" type="line"/>
    </contour>
  </outline>
</glyph>
<glyph name="f_f" format="2">
  <advance width="1816.68"/>
  <unicode hex="FB00"/>
  <outline>
    <contour>
      <point x="771.912" y="0.0" type="line"/>
      <point x="771.912" y="110.904" type="line"/>
      <point x="634.072" y="146.368" type="line"/>
      <point x="634.072" y="1088.5439999999999" type="line" smooth="yes"/>
      <point x="634.072" y="1208.2320000000002"/>
      <point x="685.6719999999999" y="1253.496"/>
      <point x="817.36" y="1253.496" type="curve" smooth="yes"/>
      <point x="963.52" y="1253.496"/>
      <point x="1047.656" y="1191.0159999999998"/>
      <point x="1099.5439999999999" y="1115.256" type="curve"/>
      <point x="1285.7359999999999" y="1277.9199999999998" type="line"/>
      <point x="1172.5439999999999" y="1410.184"/>
      <point x="1046.696" y="1446.112"/>
      <point x="838.384" y="1446.112" type="curve" smooth="yes"/>
      <point x="437.576" y="1446.112"/>
      <point x="255.928" y="1310.056"/>
      <point x="255.928" y="1017.528" type="curve" smooth="yes"/>
      <point x="255.928" y="146.36800000000002" type="line"/>
      <point x="118.088" y="110.904" type="line"/>
      <point x="118.088" y="0.0" type="line"/>
    </contour>
    <contour>
      <point x="1777.104" y="817.808" type="line"/>
      <point x="1777.104" y="1036.96" type="line"/>
      <point x="465.84799999999996" y="1036.96" type="line"/>
      <point x="273.224" y="1066.792" type="line"/>
      <point x="41.192" y="966.576" type="line"/>
      <point x="41.192" y="886.376" type="line"/>
      <point x="255.928" y="792.5120000000001" type="line"/>
      <point x="442.248" y="817.808" type="line"/>
    </contour>
    <contour>
      <point x="1398.8239999999998" y="146.368" type="line"/>
      <point x="1398.8239999999998" y="1126.432" type="line" smooth="yes"/>
      <point x="1398.8239999999998" y="1246.12"/>
      <point x="1450.424" y="1297.864"/>
      <point x="1586.6879999999999" y="1297.864" type="curve" smooth="yes"/>
      <point x="1760.864" y="1297.864"/>
      <point x="1810.8880000000001" y="1135.312"/>
      <point x="1852.368" y="1135.312" type="curve" smooth="yes"/>
      <point x="1956.824" y="1135.312"/>
      <point x="2027.616" y="1213.36"/>
      <point x="2027.616" y="1296.136" type="curve" smooth="yes"/>
      <point x="2027.616" y="1425.776"/>
      <point x="1930.416" y="1490.48"/>
      <point x="1603.136" y="1490.48" type="curve" smooth="yes"/>
      <point x="1202.328" y="1490.48"/>
      <point x="1020.68" y="1354.424"/>
      <point x="1020.68" y="1029.496" type="curve" smooth="yes"/>
      <point x="1020.68" y="146.36800000000002" type="line"/>
      <point x="882.8399999999999" y="110.904" type="line"/>
      <point x="882.8399999999999" y="0.0" type="line"/>
      <point x="1557.016" y="0.0" type="line"/>
      <point x="1557.016" y="110.904" type="line"/>
    </contour>
  </outline>
</glyph>
<glyph name="fl" format="2">
  <advance width="1595.424"/>
  <unicode hex="FB02"/>
  <outline>
    <contour>
      <point x="634.072" y="146.36800000000002" type="line"/>
      <point x="634.072" y="1126.4319999999998" type="line" smooth="yes"/>
      <point x="634.072" y="1246.1200000000001"/>
      <point x="705.7600000000001" y="1297.864"/>
      <point x="847.208" y="1297.864" type="curve" smooth="yes"/>
      <point x="920.5999999999999" y="1297.864"/>
      <point x="976.3439999999999" y="1274.88"/>
      <point x="1020.6800000000001" y="1241.672" type="curve" smooth="yes"/>
      <point x="1020.6800000000001" y="146.36800000000002" type="line"/>
      <point x="882.84" y="110.904" type="line"/>
      <point x="882.84" y="0.0" type="line"/>
      <point x="1533.496" y="0.0" type="line"/>
      <point x="1533.496" y="110.904" type="line"/>
      <point x="1398.824" y="146.36800000000002" type="line"/>
      <point x="1398.824" y="1223.568" type="line"/>
      <point x="1422.712" y="1490.48" type="line"/>
      <point x="1328.8719999999998" y="1490.48" type="line"/>
      <point x="1164.5839999999998" y="1443.8319999999999" type="line"/>
      <point x="1221.232" y="1441.5359999999998" type="line"/>
      <point x="1125.44" y="1475.72"/>
      <point x="1019.76" y="1490.48"/>
      <point x="863.6560000000001" y="1490.48" type="curve" smooth="yes"/>
      <point x="444.704" y="1490.48"/>
      <point x="255.928" y="1354.424"/>
      <point x="255.928" y="1029.496" type="curve" smooth="yes"/>
      <point x="255.928" y="146.36800000000002" type="line"/>
      <point x="118.088" y="110.904" type="line"/>
      <point x="118.088" y="0.0" type="line"/>
      <point x="771.912" y="0.0" type="line"/>
      <point x="771.912" y="110.904" type="line"/>
    </contour>
    <contour>
      <point x="907.36" y="1036.96" type="line"/>
      <point x="465.84799999999996" y="1036.96" type="line"/>
      <point x="273.224" y="1066.792" type="line"/>
      <point x="41.192" y="966.576" type="line"/>
      <point x="41.192" y="886.376" type="line"/>
      <point x="255.928" y="792.5120000000001" type="line"/>
      <point x="442.248" y="817.808" type="line"/>
      <point x="907.36" y="817.808" type="line"/>
    </contour>
  </outline>
</glyph>
<glyph name="caroncomb.alt" format="2">
  <anchor x="0.0" y="1464.0" name="_right"/>
  <outline>
    <contour>
      <point x="117.72800000000001" y="1050.6879999999999" type="line"/>
      <point x="292.288" y="1050.6879999999999" type="line"/>
      <point x="475.488" y="1411.744" type="line"/>
      <point x="475.488" y="1464.0" type="line"/>
      <point x="169.248" y="1464.0" type="line"/>
    </contour>
  </outline>
</glyph>
<glyph name="cent.lf" format="2">
  <advance width="1259.048"/>
  <outline>
    <contour>
      <point x="350.432" y="0.0" type="line"/>
      <point x="522.976" y="0.0" type="line"/>
      <point x="987.072" y="1414.0" type="line"/>
      <point x="815.176" y="1414.0" type="line"/>
    </contour>
    <contour>
      <point x="744.176" y="1247.776" type="curve" smooth="yes"/>
      <point x="332.74399999999997" y="1247.776"/>
      <point x="116.928" y="1016.8959999999998"/>
      <point x="116.928" y="686.2239999999999" type="curve" smooth="yes"/>
      <point x="116.928" y="341.15200000000004"/>
      <point x="322.76" y="157.85600000000002"/>
      <point x="672.4879999999999" y="157.85600000000002" type="curve" smooth="yes"/>
      <point x="787.5999999999999" y="157.85600000000002"/>
      <point x="922.344" y="204.13600000000002"/>
      <point x="1133.3439999999998" y="336.84799999999996" type="curve"/>
      <point x="1133.344" y="479.136" type="line"/>
      <point x="1020.176" y="446.632"/>
      <point x="914.4159999999999" y="429.056"/>
      <point x="787.496" y="429.056" type="curve" smooth="yes"/>
      <point x="551.736" y="429.056"/>
      <point x="464.56" y="517.3439999999999"/>
      <point x="464.56" y="784.288" type="curve" smooth="yes"/>
      <point x="464.56" y="1011.104"/>
      <point x="541.272" y="1085.9840000000002"/>
      <point x="676.7280000000001" y="1085.9840000000002" type="curve" smooth="yes"/>
      <point x="742.0799999999999" y="1085.9840000000002"/>
      <point x="942.168" y="857.072"/>
      <point x="989.848" y="857.072" type="curve" smooth="yes"/>
      <point x="1062.72" y="857.072"/>
      <point x="1151.712" y="925.664"/>
      <point x="1151.712" y="1029.1760000000002" type="curve" smooth="yes"/>
      <point x="1151.712" y="1149.48"/>
      <point x="1050.5520000000001" y="1247.776"/>
    </contour>
  </outline>
</glyph>
<glyph name="colonmonetary.lf.1" format="2">
  <advance width="1364.856"/>
  <outline>
    <contour>
      <point x="274.712" y="-229.96" type="line"/>
      <point x="438.72" y="-229.96" type="line"/>
      <point x="909.912" y="1643.312" type="line"/>
      <point x="746.5519999999999" y="1643.312" type="line"/>
    </contour>
    <contour>
      <point x="597.7439999999999" y="-229.96" type="line"/>
      <point x="761.752" y="-229.96" type="line"/>
      <point x="1232.592" y="1643.312" type="line"/>
      <point x="1069.584" y="1643.312" type="line"/>
    </contour>
    <contour>
      <point x="812.792" y="1231.2" type="curve" smooth="yes"/>
      <point x="986.208" y="1231.2"/>
      <point x="1069.24" y="1058.7600000000002"/>
      <point x="1116.792" y="1058.7600000000002" type="curve" smooth="yes"/>
      <point x="1208.5439999999999" y="1058.7600000000002"/>
      <point x="1281.576" y="1131.904"/>
      <point x="1281.576" y="1225.0079999999998" type="curve" smooth="yes"/>
      <point x="1281.576" y="1368.144"/>
      <point x="1147.896" y="1440.48"/>
      <point x="815.112" y="1440.48" type="curve" smooth="yes"/>
      <point x="361.992" y="1440.128"/>
      <point x="115.28" y="1143.424"/>
      <point x="115.28" y="673.152" type="curve" smooth="yes"/>
      <point x="115.28" y="219.128"/>
      <point x="328.792" y="-26.48"/>
      <point x="704.5600000000001" y="-26.48" type="curve" smooth="yes"/>
      <point x="901.128" y="-26.48"/>
      <point x="1032.864" y="22.368000000000002"/>
      <point x="1233.672" y="155.952" type="curve"/>
      <point x="1233.672" y="327.904" type="line"/>
      <point x="1088.616" y="278.456"/>
      <point x="1011.8" y="263.752"/>
      <point x="882.1360000000001" y="263.752" type="curve" smooth="yes"/>
      <point x="633.48" y="263.752"/>
      <point x="522.384" y="407.424"/>
      <point x="522.384" y="749.92" type="curve" smooth="yes"/>
      <point x="522.384" y="1105.968"/>
      <point x="611.672" y="1231.2"/>
    </contour>
  </outline>
</glyph>
<glyph name="four.lf" format="2">
  <advance width="1456.288"/>
  <outline>
    <contour>
      <point x="1087.336" y="1414.0" type="line"/>
      <point x="631.3760000000001" y="1414.0" type="line"/>
      <point x="56.464000000000006" y="664.856" type="line"/>
      <point x="58.408" y="399.192" type="line"/>
      <point x="1350.36" y="399.192" type="line"/>
      <point x="1410.416" y="665.1039999999999" type="line"/>
      <point x="1191.416" y="636.1039999999999" type="line"/>
      <point x="143.464" y="636.1039999999999" type="line"/>
      <point x="201.2" y="537.944" type="line"/>
      <point x="801.072" y="1294.288" type="line"/>
      <point x="673.92" y="1308.264" type="line"/>
      <point x="673.92" y="175.67999999999998" type="line"/>
      <point x="425.99199999999996" y="121.68" type="line"/>
      <point x="425.99199999999996" y="0.0" type="line"/>
      <point x="1320.2640000000001" y="0.0" type="line"/>
      <point x="1320.2640000000001" y="121.68" type="line"/>
      <point x="1087.336" y="175.67999999999998" type="line"/>
    </contour>
  </outline>
</glyph>
<glyph name="seven.lf" format="2">
  <advance width="1281.472"/>
  <outline>
    <contour>
      <point x="144.624" y="1076.96" type="line"/>
      <point x="1074.392" y="1076.96" type="line"/>
      <point x="1062.144" y="1284.4080000000001" type="line"/>
      <point x="343.872" y="0.0" type="line"/>
      <point x="756.536" y="0.0" type="line"/>
      <point x="1274.08" y="1379.7440000000001" type="line"/>
      <point x="1274.08" y="1414.0" type="line"/>
      <point x="361.384" y="1414.0" type="line"/>
      <point x="257.928" y="1500.8480000000002" type="line"/>
      <point x="143.84" y="1500.8480000000002" type="line"/>
      <point x="60.24799999999999" y="819.048" type="line"/>
      <point x="234.66400000000002" y="819.048" type="line"/>
      <point x="488.01599999999996" y="1240.048" type="line"/>
    </contour>
  </outline>
</glyph>
<glyph name="sterling.lf" format="2">
  <advance width="1483.552"/>
  <outline>
    <contour>
      <point x="1154.392" y="905.064" type="curve"/>
      <point x="1361.6560000000002" y="968.832" type="line"/>
      <point x="1294.848" y="1280.48"/>
      <point x="1144.736" y="1440.48"/>
      <point x="813.264" y="1440.48" type="curve" smooth="yes"/>
      <point x="426.056" y="1440.48"/>
      <point x="226.344" y="1270.44"/>
      <point x="219.456" y="1032.816" type="curve" smooth="yes"/>
      <point x="211.624" y="736.24"/>
      <point x="426.2" y="666.368"/>
      <point x="426.2" y="468.312" type="curve" smooth="yes"/>
      <point x="426.2" y="364.848"/>
      <point x="352.25600000000003" y="276.088"/>
      <point x="196.07199999999997" y="168.856" type="curve"/>
      <point x="196.07199999999997" y="0.0" type="line"/>
      <point x="1065.904" y="0.0" type="line"/>
      <point x="1123.248" y="-75.888" type="line"/>
      <point x="1269.76" y="-75.888" type="line"/>
      <point x="1390.384" y="522.72" type="line"/>
      <point x="1241.6879999999999" y="522.72" type="line"/>
      <point x="965.6400000000001" y="186.57600000000002" type="line"/>
      <point x="1302.288" y="357.776" type="line"/>
      <point x="432.24800000000005" y="357.776" type="line"/>
      <point x="402.592" y="258.504" type="line"/>
      <point x="636.288" y="406.84"/>
      <point x="729.504" y="529.088"/>
      <point x="729.504" y="638.256" type="curve" smooth="yes"/>
      <point x="729.504" y="737.7759389312977"/>
      <point x="652.408" y="819.4079999999999"/>
      <point x="652.408" y="945.7040000000001" type="curve" smooth="yes"/>
      <point x="652.408" y="1069.432"/>
      <point x="721.968" y="1142.1599999999999"/>
      <point x="879.2880000000001" y="1142.1599999999999" type="curve" smooth="yes"/>
      <point x="1038.368" y="1142.1599999999999"/>
      <point x="1113.04" y="1067.9679999999998"/>
    </contour>
    <contour>
      <point x="1041.4479999999999" y="787.848" type="line"/>
      <point x="85.68799999999999" y="787.848" type="line"/>
      <point x="85.68799999999999" y="632.56" type="line"/>
      <point x="1041.4479999999999" y="632.56" type="line"/>
    </contour>
  </outline>
</glyph>
<glyph name="three.lf" format="2">
  <advance width="1332.64"/>
  <outline>
    <contour>
      <point x="514.496" y="596.6239999999999" type="line"/>
      <point x="588.536" y="601.976" type="line" smooth="yes"/>
      <point x="802.576" y="617.3280000000001"/>
      <point x="874.6160000000001" y="547.12"/>
      <point x="874.6160000000001" y="410.856" type="curve" smooth="yes"/>
      <point x="874.6160000000001" y="264.216"/>
      <point x="769.6479999999999" y="168.43200000000002"/>
      <point x="561.616" y="168.43200000000002" type="curve" smooth="yes"/>
      <point x="402.15200000000004" y="168.43200000000002"/>
      <point x="276.456" y="350.56"/>
      <point x="226.792" y="350.56" type="curve" smooth="yes"/>
      <point x="153.22400000000002" y="350.56"/>
      <point x="79.376" y="281.84000000000003"/>
      <point x="79.376" y="184.16" type="curve" smooth="yes"/>
      <point x="79.376" y="56.112"/>
      <point x="179.448" y="-26.48"/>
      <point x="518.008" y="-26.48" type="curve" smooth="yes"/>
      <point x="969.48" y="-26.48"/>
      <point x="1234.08" y="173.648"/>
      <point x="1234.08" y="463.312" type="curve" smooth="yes"/>
      <point x="1234.08" y="678.3679999999999"/>
      <point x="1095.192" y="821.088"/>
      <point x="821.6" y="821.44" type="curve"/>
      <point x="776.376" y="800.7199999999999" type="line"/>
      <point x="1049.28" y="816.664"/>
      <point x="1167.08" y="946.6479999999999"/>
      <point x="1167.08" y="1120.816" type="curve" smooth="yes"/>
      <point x="1167.08" y="1290.392"/>
      <point x="1055.816" y="1440.48"/>
      <point x="708.6320000000001" y="1440.48" type="curve" smooth="yes"/>
      <point x="367.464" y="1440.48"/>
      <point x="187.36800000000002" y="1287.632"/>
      <point x="105.872" y="1007.4879999999999" type="curve"/>
      <point x="298.728" y="943.976" type="line"/>
      <point x="354.656" y="1103.944"/>
      <point x="449.808" y="1168.3359999999998"/>
      <point x="606.736" y="1168.3359999999998" type="curve" smooth="yes"/>
      <point x="770.48" y="1168.3359999999998"/>
      <point x="829.24" y="1099.776"/>
      <point x="829.24" y="1000.808" type="curve" smooth="yes"/>
      <point x="829.24" y="874.768"/>
      <point x="776.104" y="813.0400000000001"/>
      <point x="499.792" y="794.296" type="curve"/>
    </contour>
  </outline>
</glyph>
<glyph name="uni0302_hookabovecomb.case" format="2">
  <anchor x="0.0" y="1414.0" name="_UCtop"/>
  <outline>
    <contour>
      <point x="38.367999999999995" y="1722.8239999999998" type="line"/>
      <point x="-38.367999999999995" y="1722.8239999999998" type="line"/>
      <point x="162.192" y="1544.0" type="line"/>
      <point x="398.416" y="1544.0" type="line"/>
      <point x="138.416" y="1870.0" type="line"/>
      <point x="-138.416" y="1870.0" type="line"/>
      <point x="-398.416" y="1544.0" type="line"/>
      <point x="-162.192" y="1544.0" type="line"/>
    </contour>
    <contour>
      <point x="339.24800000000005" y="1813.128" type="curve"/>
      <point x="356.304" y="1713.856" type="line"/>
      <point x="605.5360000000001" y="1755.616"/>
      <point x="667.312" y="1841.5200000000002"/>
      <point x="667.312" y="1953.296" type="curve" smooth="yes"/>
      <point x="667.312" y="2073.848"/>
      <point x="609.832" y="2135.552"/>
      <point x="210.27200000000002" y="2134.72" type="curve"/>
      <point x="205.16" y="1958.6" type="line"/>
      <point x="430.048" y="1964.784"/>
      <point x="454.808" y="1930.08"/>
      <point x="454.808" y="1890.56" type="curve" smooth="yes"/>
      <point x="454.808" y="1852.632"/>
      <point x="435.288" y="1831.4080000000001"/>
    </contour>
  </outline>
</glyph>
<glyph name="uni030F.case" format="2">
  <anchor x="0.0" y="1414.0" name="_UCtop"/>
  <anchor x="0.0" y="1870.0" name="UCtop"/>
  <outline>
    <contour>
      <point x="-74.52" y="1544.0" type="line"/>
      <point x="-241.12" y="1870.0" type="line"/>
      <point x="-588.2080000000001" y="1870.0" type="line"/>
      <point x="-588.2080000000001" y="1806.9119999999998" type="line"/>
      <point x="-248.656" y="1544.0" type="line"/>
    </contour>
    <contour>
      <point x="292.208" y="1544.0" type="line"/>
      <point x="238.216" y="1870.0" type="line"/>
      <point x="-84.392" y="1870.0" type="line"/>
      <point x="-84.392" y="1815.8" type="line"/>
      <point x="125.072" y="1544.0" type="line"/>
    </contour>
  </outline>
</glyph>
<glyph name="uni20A6.1" format="2">
  <advance width="1462.0"/>
  <outline>
    <contour>
      <point x="1457.52" y="639.376" type="line"/>
      <point x="10.888000000000002" y="639.376" type="line"/>
      <point x="10.888000000000002" y="484.08799999999997" type="line"/>
      <point x="1457.52" y="484.08799999999997" type="line"/>
    </contour>
    <contour>
      <point x="1457.52" y="986.0" type="line"/>
      <point x="10.888000000000002" y="986.0" type="line"/>
      <point x="10.888000000000002" y="830.712" type="line"/>
      <point x="1457.52" y="830.712" type="line"/>
    </contour>
    <contour>
      <point x="1153.568" y="252.62400000000002" type="line"/>
      <point x="658.328" y="1414.0" type="line"/>
      <point x="63.424" y="1414.0" type="line"/>
      <point x="63.424" y="1293.84" type="line"/>
      <point x="210.23999999999998" y="1239.1599999999999" type="line"/>
      <point x="210.23999999999998" y="159.768" type="line"/>
      <point x="74.90400000000001" y="120.16" type="line"/>
      <point x="74.90400000000001" y="0.0" type="line"/>
      <point x="547.672" y="0.0" type="line"/>
      <point x="547.672" y="120.16" type="line"/>
      <point x="412.688" y="159.768" type="line"/>
      <point x="412.688" y="1311.0240000000001" type="line"/>
      <point x="322.496" y="1281.12" type="line"/>
      <point x="864.36" y="0.0" type="line"/>
      <point x="1272.408" y="0.0" type="line"/>
      <point x="1272.408" y="1254.232" type="line"/>
      <point x="1407.096" y="1293.84" type="line"/>
      <point x="1407.096" y="1414.0" type="line"/>
      <point x="935.976" y="1414.0" type="line"/>
      <point x="935.976" y="1293.84" type="line"/>
      <point x="1069.96" y="1254.232" type="line"/>
      <point x="1069.96" y="201.168" type="line"/>
    </contour>
  </outline>
</glyph>
<glyph name="uni20A9.lf.1" format="2">
  <advance width="1846.208"/>
  <outline>
    <contour>
      <point x="1736.352" y="639.376" type="line"/>
      <point x="113.152" y="639.376" type="line"/>
      <point x="113.152" y="484.08799999999997" type="line"/>
      <point x="1736.352" y="484.08799999999997" type="line"/>
    </contour>
    <contour>
      <point x="1736.352" y="986.0" type="line"/>
      <point x="113.152" y="986.0" type="line"/>
      <point x="113.152" y="830.712" type="line"/>
      <point x="1736.352" y="830.712" type="line"/>
    </contour>
    <contour>
      <point x="890.328" y="1117.776" type="line"/>
      <point x="1087.192" y="0.0" type="line"/>
      <point x="1458.9679999999998" y="0.0" type="line"/>
      <point x="1596.672" y="1267.3600000000001" type="line"/>
      <point x="1703.728" y="1293.8400000000001" type="line"/>
      <point x="1703.728" y="1414.0" type="line"/>
      <point x="1328.7920000000001" y="1414.0" type="line"/>
      <point x="1328.7920000000001" y="1293.8400000000001" type="line"/>
      <point x="1418.056" y="1262.768" type="line"/>
      <point x="1327.7359999999999" y="100.328" type="line"/>
      <point x="1392.864" y="130.472" type="line"/>
      <point x="1171.1519999999998" y="1414.0" type="line"/>
      <point x="870.016" y="1414.0" type="line"/>
      <point x="605.992" y="119.992" type="line"/>
      <point x="687.192" y="134.416" type="line"/>
      <point x="584.448" y="1267.3600000000001" type="line"/>
      <point x="672.176" y="1293.8400000000001" type="line"/>
      <point x="672.176" y="1414.0" type="line"/>
      <point x="133.296" y="1414.0" type="line"/>
      <point x="133.296" y="1293.8400000000001" type="line"/>
      <point x="247.16799999999998" y="1252.288" type="line"/>
      <point x="390.704" y="0.0" type="line"/>
      <point x="753.2399999999999" y="0.0" type="line"/>
      <point x="974.456" y="1117.7759999999998" type="line"/>
    </contour>
  </outline>
</glyph>
<glyph name="uni20B9.lf" format="2">
  <advance width="1381.824"/>
  <outline>
    <contour>
      <point x="1273.432" y="1073.1680000000001" type="line"/>
      <point x="118.816" y="1073.1680000000001" type="line"/>
      <point x="118.816" y="917.8800000000001" type="line"/>
      <point x="1273.432" y="917.8800000000001" type="line"/>
    </contour>
    <contour>
      <point x="445.696" y="576.64" type="line" smooth="yes"/>
      <point x="583.12" y="576.64"/>
      <point x="617.4159999999999" y="550.1759999999999"/>
      <point x="637.992" y="430.136" type="curve" smooth="yes"/>
      <point x="679.904" y="189.016" type="line" smooth="yes"/>
      <point x="711.776" y="-2.1839999999999993"/>
      <point x="815.8399999999999" y="-36.608000000000004"/>
      <point x="1230.512" y="0.0" type="curve"/>
      <point x="1230.512" y="163.35999999999999" type="line"/>
      <point x="1112.528" y="160.89600000000002"/>
      <point x="1093.528" y="179.24800000000002"/>
      <point x="1075.6" y="289.896" type="curve" smooth="yes"/>
      <point x="1045.056" y="454.416" type="line" smooth="yes"/>
      <point x="1019.424" y="612.784"/>
      <point x="932.136" y="674.9680000000001"/>
      <point x="698.776" y="687.1519999999999" type="curve"/>
      <point x="698.7760000000001" y="673.5600000000001" type="line"/>
      <point x="936.808" y="693.2479999999999"/>
      <point x="1068.096" y="826.952"/>
      <point x="1068.096" y="993.4159999999999" type="curve" smooth="yes"/>
      <point x="1068.096" y="1183.696"/>
      <point x="969.224" y="1301.952"/>
      <point x="606.8720000000001" y="1301.952" type="curve" smooth="yes"/>
      <point x="338.84000000000003" y="1301.952" type="line"/>
      <point x="338.84000000000003" y="1414.0" type="line"/>
      <point x="118.816" y="1414.0" type="line"/>
      <point x="118.816" y="1232.176" type="line"/>
      <point x="484.448" y="1232.176" type="line" smooth="yes"/>
      <point x="651.968" y="1232.176"/>
      <point x="696.952" y="1164.432"/>
      <point x="696.952" y="984.6560000000001" type="curve" smooth="yes"/>
      <point x="696.952" y="828.336"/>
      <point x="626.8" y="757.8159999999999"/>
      <point x="483.832" y="757.8159999999999" type="curve" smooth="yes"/>
      <point x="118.816" y="757.8159999999999" type="line"/>
      <point x="118.816" y="576.64" type="line"/>
    </contour>
    <contour>
      <point x="1273.432" y="1414.0" type="line"/>
      <point x="118.816" y="1414.0" type="line"/>
      <point x="118.816" y="1258.712" type="line"/>
      <point x="1273.432" y="1258.712" type="line"/>
    </contour>
  </outline>
</glyph>
<glyph name="uni20BC.lf" format="2">
  <advance width="1436.664"/>
  <outline>
    <contour>
      <point x="718.832" y="969.936" type="curve" smooth="yes"/>
      <point x="914.0559999999999" y="969.936"/>
      <point x="956.456" y="887.8639999999999"/>
      <point x="984.696" y="0.0" type="curve"/>
      <point x="1333.7359999999999" y="0.0" type="line"/>
      <point x="1270.0" y="959.392"/>
      <point x="1078.52" y="1152.832"/>
      <point x="718.832" y="1152.832" type="curve" smooth="yes"/>
      <point x="359.496" y="1152.832"/>
      <point x="166.664" y="959.392"/>
      <point x="102.928" y="0.0" type="curve"/>
      <point x="452.32000000000005" y="0.0" type="line"/>
      <point x="480.56" y="887.8639999999999"/>
      <point x="523.256" y="969.936"/>
    </contour>
    <contour>
      <point x="632.264" y="0.0" type="line"/>
      <point x="799.5120000000001" y="0.0" type="line"/>
      <point x="799.5120000000001" y="1414.0" type="line"/>
      <point x="632.264" y="1414.0" type="line"/>
    </contour>
  </outline>
</glyph>
<glyph name="uni20BD.lf" format="2">
  <advance width="1513.1119999999999"/>
  <outline>
    <contour>
      <point x="1341.6160000000002" y="536.912" type="line"/>
      <point x="128.264" y="536.912" type="line"/>
      <point x="128.264" y="381.624" type="line"/>
      <point x="1341.6160000000002" y="381.624" type="line"/>
    </contour>
    <contour>
      <point x="1043.48" y="720.1519999999999" type="line" smooth="yes"/>
      <point x="1313.272" y="720.1519999999999"/>
      <point x="1428.848" y="867.5360000000001"/>
      <point x="1428.848" y="1068.28" type="curve" smooth="yes"/>
      <point x="1428.848" y="1267.2640000000001"/>
      <point x="1322.68" y="1414.0"/>
      <point x="1028.344" y="1414.0" type="curve" smooth="yes"/>
      <point x="580.168" y="1414.0" type="line"/>
      <point x="580.168" y="1197.8319999999999" type="line"/>
      <point x="900.288" y="1197.8319999999999" type="line" smooth="yes"/>
      <point x="1015.048" y="1197.8319999999999"/>
      <point x="1054.904" y="1142.44"/>
      <point x="1054.904" y="1041.84" type="curve" smooth="yes"/>
      <point x="1054.904" y="935.0160000000001"/>
      <point x="1000.6400000000001" y="875.4399999999999"/>
      <point x="912.168" y="875.4399999999999" type="curve" smooth="yes"/>
      <point x="128.264" y="875.4399999999999" type="line"/>
      <point x="128.264" y="720.1519999999999" type="line"/>
    </contour>
    <contour>
      <point x="156.128" y="1414.0" type="line"/>
      <point x="156.128" y="1291.024" type="line"/>
      <point x="338.064" y="1242.376" type="line"/>
      <point x="338.064" y="170.976" type="line"/>
      <point x="156.128" y="122.328" type="line"/>
      <point x="156.128" y="0.0" type="line"/>
      <point x="932.008" y="0.0" type="line"/>
      <point x="932.008" y="122.328" type="line"/>
      <point x="751.48" y="170.976" type="line"/>
      <point x="751.48" y="1414.0" type="line"/>
    </contour>
  </outline>
</glyph>
<glyph name="yen.lf" format="2">
  <advance width="1697.7920000000001"/>
  <outline>
    <contour>
      <point x="1447.232" y="618.256" type="line"/>
      <point x="266.76" y="618.256" type="line"/>
      <point x="266.76" y="462.968" type="line"/>
      <point x="1447.232" y="462.968" type="line"/>
    </contour>
    <contour>
      <point x="1447.232" y="964.88" type="line"/>
      <point x="266.76" y="964.88" type="line"/>
      <point x="266.76" y="809.592" type="line"/>
      <point x="1447.232" y="809.592" type="line"/>
    </contour>
    <contour>
      <point x="1069.456" y="914.848" type="line"/>
      <point x="1493.232" y="1251.3200000000002" type="line"/>
      <point x="1638.144" y="1290.6719999999998" type="line"/>
      <point x="1638.144" y="1414.0" type="line"/>
      <point x="1104.6000000000001" y="1414.0" type="line"/>
      <point x="1104.6000000000001" y="1290.6719999999998" type="line"/>
      <point x="1249.256" y="1251.6719999999998" type="line"/>
      <point x="932.136" y="995.952" type="line"/>
      <point x="995.472" y="1001.4879999999999" type="line"/>
      <point x="698.368" y="1251.32" type="line"/>
      <point x="848.7280000000001" y="1290.6719999999998" type="line"/>
      <point x="848.7280000000001" y="1414.0" type="line"/>
      <point x="57.056" y="1414.0" type="line"/>
      <point x="57.056" y="1290.6719999999998" type="line"/>
      <point x="215.84" y="1251.672" type="line"/>
      <point x="656.04" y="908.904" type="line"/>
      <point x="656.04" y="173.568" type="line"/>
      <point x="419.024" y="121.68" type="line"/>
      <point x="419.024" y="0.0" type="line"/>
      <point x="1295.344" y="0.0" type="line"/>
      <point x="1295.344" y="121.68" type="line"/>
      <point x="1069.456" y="173.568" type="line"/>
    </contour>
  </outline>
</glyph>
